<svg width="9" height="8" viewBox="0 0 9 8" fill="none" xmlns="http://www.w3.org/2000/svg">
    <path d="M3.45898 6.8457C3.51647 6.92594 3.59226 6.99133 3.68006 7.03643C3.76786 7.08154 3.86515 7.10506 3.96386 7.10506C4.06257 7.10506 4.15986 7.08154 4.24766 7.03643C4.33546 6.99133 4.41125 6.92594 4.46874 6.8457L8.582 1.14258C8.65622 1.03906 8.582 0.894531 8.45505 0.894531H7.53904C7.33982 0.894531 7.15037 0.990234 7.03318 1.1543L3.96484 5.41211L2.57422 3.48242C2.45703 3.32031 2.26953 3.22266 2.06836 3.22266H1.15235C1.02539 3.22266 0.951175 3.36719 1.02539 3.4707L3.45898 6.8457Z" fill="#130751"/>
</svg>
