<svg width="482" height="368" viewBox="0 0 482 368" fill="none" xmlns="http://www.w3.org/2000/svg">
    <path d="M399.56 54.36V24.34H80.83V37.69V116.71H27.53V217.25H93.81" stroke="#0024A8" stroke-width="1.07" stroke-miterlimit="10" stroke-dasharray="3.2 3.2"/>
    <path d="M55.21 278.24V276.64" stroke="#0024A8" stroke-width="1.07" stroke-miterlimit="10"/>
    <path d="M55.21 273.62V238.84" stroke="#0024A8" stroke-width="1.07" stroke-miterlimit="10" stroke-dasharray="3.02 3.02"/>
    <path d="M55.2101 237.32V235.73H53.6101" stroke="#0024A8" stroke-width="1.07" stroke-miterlimit="10"/>
    <path d="M50.5801 235.73H3.65015" stroke="#0024A8" stroke-width="1.07" stroke-miterlimit="10" stroke-dasharray="3.03 3.03"/>
    <path d="M2.13003 235.73H0.530029V234.13" stroke="#0024A8" stroke-width="1.07" stroke-miterlimit="10"/>
    <path d="M0.530029 230.88V180.59" stroke="#0024A8" stroke-width="1.07" stroke-miterlimit="10" stroke-dasharray="3.24 3.24"/>
    <path d="M0.530029 178.96V177.36H2.13003" stroke="#0024A8" stroke-width="1.07" stroke-miterlimit="10"/>
    <path d="M5.21997 177.36H65.4" stroke="#0024A8" stroke-width="1.07" stroke-miterlimit="10" stroke-dasharray="3.09 3.09"/>
    <path d="M66.9399 177.36H68.5399V175.76" stroke="#0024A8" stroke-width="1.07" stroke-miterlimit="10"/>
    <path d="M68.54 172.61V41.59" stroke="#0024A8" stroke-width="1.07" stroke-miterlimit="10" stroke-dasharray="3.16 3.16"/>
    <path d="M68.54 40.02V38.42H70.14" stroke="#0024A8" stroke-width="1.07" stroke-miterlimit="10"/>
    <path d="M73.3601 38.42H181.36" stroke="#0024A8" stroke-width="1.07" stroke-miterlimit="10" stroke-dasharray="3.22 3.22"/>
    <path d="M182.97 38.42H184.57V36.82" stroke="#0024A8" stroke-width="1.07" stroke-miterlimit="10"/>
    <path d="M184.57 33.66V3.71002" stroke="#0024A8" stroke-width="1.07" stroke-miterlimit="10" stroke-dasharray="3.15 3.15"/>
    <path d="M184.57 2.13003V0.530029H186.16" stroke="#0024A8" stroke-width="1.07" stroke-miterlimit="10"/>
    <path d="M189.37 0.530029H239.06" stroke="#0024A8" stroke-width="1.07" stroke-miterlimit="10" stroke-dasharray="3.21 3.21"/>
    <path d="M240.66 0.530029H242.26V2.13003" stroke="#0024A8" stroke-width="1.07" stroke-miterlimit="10"/>
    <path d="M242.26 5.45001V36.94" stroke="#0024A8" stroke-width="1.07" stroke-miterlimit="10" stroke-dasharray="3.31 3.31"/>
    <path d="M242.26 38.59V40.19H243.86" stroke="#0024A8" stroke-width="1.07" stroke-miterlimit="10"/>
    <path d="M247.09 40.19H297.25" stroke="#0024A8" stroke-width="1.07" stroke-miterlimit="10" stroke-dasharray="3.24 3.24"/>
    <path d="M298.87 40.19H300.47V41.79" stroke="#0024A8" stroke-width="1.07" stroke-miterlimit="10"/>
    <path d="M300.47 45.45V50.93" stroke="#0024A8" stroke-width="1.07" stroke-miterlimit="10" stroke-dasharray="3.66 3.66"/>
    <path d="M300.47 52.76V54.36H302.07" stroke="#0024A8" stroke-width="1.07" stroke-miterlimit="10"/>
    <path d="M305.16 54.36H396.41" stroke="#0024A8" stroke-width="1.07" stroke-miterlimit="10" stroke-dasharray="3.09 3.09"/>
    <path d="M397.96 54.36H399.56V55.96" stroke="#0024A8" stroke-width="1.07" stroke-miterlimit="10"/>
    <path d="M399.56 58.86V74.85" stroke="#0024A8" stroke-width="1.07" stroke-miterlimit="10" stroke-dasharray="2.91 2.91"/>
    <path d="M399.56 76.3V77.9H401.15" stroke="#0024A8" stroke-width="1.07" stroke-miterlimit="10"/>
    <path d="M404.52 77.9H449.97" stroke="#0024A8" stroke-width="1.07" stroke-miterlimit="10" stroke-dasharray="3.37 3.37"/>
    <path d="M451.65 77.9H453.25V79.5" stroke="#0024A8" stroke-width="1.07" stroke-miterlimit="10"/>
    <path d="M453.25 82.73V126.44" stroke="#0024A8" stroke-width="1.07" stroke-miterlimit="10" stroke-dasharray="3.24 3.24"/>
    <path d="M453.25 128.06V129.65H451.65" stroke="#0024A8" stroke-width="1.07" stroke-miterlimit="10"/>
    <path d="M448.18 129.65H415.22" stroke="#0024A8" stroke-width="1.07" stroke-miterlimit="10" stroke-dasharray="3.47 3.47"/>
    <path d="M413.49 129.65H411.89V131.25" stroke="#0024A8" stroke-width="1.07" stroke-miterlimit="10"/>
    <path d="M411.89 134.38V251.57" stroke="#0024A8" stroke-width="1.07" stroke-miterlimit="10" stroke-dasharray="3.13 3.13"/>
    <path d="M411.89 253.13V254.73" stroke="#0024A8" stroke-width="1.07" stroke-miterlimit="10"/>
    <path d="M446.4 351.99H31.45V367.53H446.4V351.99Z" fill="#4779F6"/>
    <path d="M393.69 296.98H84.16L31.45 351.99H446.4L393.69 296.98Z" fill="#072BDB"/>
    <path d="M237.01 339.85C321.581 339.85 390.14 333.434 390.14 325.52C390.14 317.606 321.581 311.19 237.01 311.19C152.439 311.19 83.8801 317.606 83.8801 325.52C83.8801 333.434 152.439 339.85 237.01 339.85Z" fill="#0024A8"/>
    <path d="M206.33 275.23L199.73 321.02H278.11L270.69 275.23H206.33Z" fill="#054DDD"/>
    <path d="M305.35 327.62H172.51V330.92H305.35V327.62Z" fill="#054DDD"/>
    <path d="M199.73 321.02L172.5 327.62H305.34L278.11 321.02H199.73Z" fill="#4779F6"/>
    <path d="M98.48 80.14H379.37C382.733 80.14 385.958 81.4759 388.336 83.8539C390.714 86.2319 392.05 89.4571 392.05 92.82V251.65H85.8V92.82C85.8 89.4571 87.136 86.2319 89.5139 83.8539C91.8919 81.4759 95.1171 80.14 98.48 80.14Z" fill="#130751"/>
    <path d="M85.8 251.65H392.05V268.37C392.05 271.72 390.719 274.932 388.351 277.301C385.982 279.669 382.77 281 379.42 281H98.42C95.0721 280.997 91.8622 279.666 89.4958 277.297C87.1293 274.929 85.8 271.718 85.8 268.37V251.65Z" fill="#4779F6"/>
    <path d="M380.76 90.04H97.1001V241.03H380.76V90.04Z" fill="#B6CEFF"/>
    <path d="M244.9 265.16C244.9 266.347 244.548 267.507 243.889 268.493C243.229 269.48 242.292 270.249 241.196 270.703C240.1 271.157 238.893 271.276 237.729 271.045C236.565 270.813 235.496 270.242 234.657 269.403C233.818 268.564 233.247 267.494 233.015 266.331C232.784 265.167 232.902 263.96 233.357 262.864C233.811 261.768 234.58 260.83 235.566 260.171C236.553 259.512 237.713 259.16 238.9 259.16C240.491 259.16 242.017 259.792 243.143 260.917C244.268 262.043 244.9 263.569 244.9 265.16Z" fill="#130751"/>
    <path d="M242.26 107.27H141.82V224.51H242.26V107.27Z" fill="#4779F6"/>
    <path d="M227.74 123.26H156.33V129.66H227.74V123.26Z" fill="#E4EAFE"/>
    <path d="M227.74 134.98H156.33V141.37H227.74V134.98Z" fill="#E4EAFE"/>
    <path d="M227.74 146.71H156.33V153.11H227.74V146.71Z" fill="#E4EAFE"/>
    <path d="M227.74 158.43H156.33V164.83H227.74V158.43Z" fill="#E4EAFE"/>
    <path d="M227.74 170.15H156.33V176.54H227.74V170.15Z" fill="#E4EAFE"/>
    <path d="M227.74 181.88H156.33V188.28H227.74V181.88Z" fill="#E4EAFE"/>
    <path d="M227.74 193.6H156.33V200H227.74V193.6Z" fill="#E4EAFE"/>
    <path d="M227.74 205.33H156.33V211.73H227.74V205.33Z" fill="#E4EAFE"/>
    <path d="M309.89 149.8V139.58H303.53C303.004 137.292 302.113 135.104 300.89 133.1L305.42 128.57L298.2 121.34L293.7 125.84C291.708 124.596 289.531 123.678 287.25 123.12V116.71H277V123.07C274.714 123.602 272.527 124.493 270.52 125.71L266 121.18L258.77 128.4L263.27 132.9C262.028 134.893 261.11 137.07 260.55 139.35H254.14V149.57H260.5C261.03 151.857 261.921 154.044 263.14 156.05L258.61 160.58L265.84 167.81L270.33 163.31C272.329 164.548 274.513 165.456 276.8 166V172.41H287V166.05C289.287 165.52 291.474 164.629 293.48 163.41L298 168L305.22 160.78L300.72 156.28C301.966 154.29 302.885 152.112 303.44 149.83L309.89 149.8ZM282 154.39C280.057 154.39 278.159 153.814 276.543 152.734C274.928 151.655 273.67 150.121 272.927 148.326C272.184 146.531 271.99 144.556 272.37 142.651C272.749 140.745 273.686 138.996 275.06 137.623C276.434 136.25 278.185 135.315 280.09 134.937C281.996 134.56 283.971 134.756 285.765 135.5C287.559 136.245 289.092 137.505 290.17 139.122C291.248 140.738 291.822 142.637 291.82 144.58C291.82 145.869 291.566 147.146 291.072 148.336C290.579 149.527 289.855 150.609 288.943 151.52C288.031 152.431 286.949 153.154 285.757 153.646C284.566 154.139 283.289 154.391 282 154.39Z" fill="#130751"/>
    <path d="M348 181.13V173.13H343C342.586 171.326 341.883 169.601 340.92 168.02L344.49 164.45L338.8 158.77L335.26 162.31C333.693 161.328 331.977 160.605 330.18 160.17V155.17H322.18V160.17C320.376 160.584 318.65 161.287 317.07 162.25L313.5 158.68L307.82 164.37L311.36 167.91C310.375 169.476 309.652 171.192 309.22 172.99H304.17V180.99H309.17C309.584 182.794 310.287 184.52 311.25 186.1L307.68 189.66L313.37 195.35L316.91 191.81C318.476 192.795 320.191 193.518 321.99 193.95V198.95H329.99V193.95C331.794 193.536 333.519 192.833 335.1 191.87L338.66 195.44L344.35 189.75L340.81 186.21C341.792 184.643 342.515 182.928 342.95 181.13H348ZM326.07 184.75C324.541 184.75 323.047 184.297 321.775 183.447C320.504 182.598 319.513 181.391 318.928 179.978C318.343 178.566 318.19 177.011 318.488 175.512C318.787 174.013 319.523 172.635 320.604 171.554C321.685 170.473 323.062 169.737 324.562 169.439C326.061 169.14 327.616 169.293 329.028 169.878C330.441 170.464 331.648 171.454 332.497 172.725C333.347 173.997 333.8 175.491 333.8 177.02C333.8 178.036 333.6 179.042 333.211 179.98C332.821 180.919 332.251 181.772 331.532 182.49C330.813 183.207 329.96 183.777 329.021 184.165C328.082 184.552 327.076 184.751 326.06 184.75H326.07Z" fill="#130751"/>
    <path d="M304 199.74V194H300.45C300.153 192.724 299.657 191.502 298.98 190.38L301.51 187.85L297.51 183.85L295 186.36C293.891 185.661 292.675 185.148 291.4 184.84V181.26H285.69V184.81C284.411 185.102 283.188 185.602 282.07 186.29L279.54 183.76L275.54 187.76L278.05 190.27C277.357 191.385 276.847 192.604 276.54 193.88H272.95V199.58H276.51C276.803 200.858 277.3 202.08 277.98 203.2L275.45 205.74L279.45 209.74L281.96 207.23C283.073 207.922 284.288 208.435 285.56 208.75V212.33H291.27V208.78C292.548 208.483 293.77 207.984 294.89 207.3L297.42 209.83L301.42 205.83L298.91 203.31C299.603 202.199 300.113 200.983 300.42 199.71L304 199.74ZM288.44 202.31C287.354 202.312 286.292 201.992 285.387 201.39C284.483 200.788 283.778 199.931 283.361 198.928C282.944 197.925 282.834 196.821 283.044 195.755C283.255 194.689 283.777 193.71 284.545 192.942C285.312 192.173 286.29 191.649 287.355 191.436C288.421 191.224 289.525 191.332 290.529 191.747C291.533 192.162 292.391 192.866 292.994 193.769C293.598 194.672 293.92 195.734 293.92 196.82C293.92 197.544 293.777 198.26 293.499 198.928C293.222 199.596 292.815 200.202 292.302 200.713C291.789 201.223 291.18 201.627 290.51 201.901C289.841 202.175 289.124 202.314 288.4 202.31H288.44Z" fill="#130751"/>
    <path opacity="0.24" d="M231.71 90.04L170.72 241.02H204.48L264.92 90.04H231.71Z" fill="white"/>
    <path opacity="0.24" d="M285.92 90.04L228.98 241.02H242.54L300.47 90.04H285.92Z" fill="white"/>
    <path d="M336.83 58.17C336.483 58.1648 336.142 58.0828 335.83 57.93C335.152 57.6275 334.418 57.4712 333.675 57.4712C332.933 57.4712 332.198 57.6275 331.52 57.93C330.964 58.2009 330.323 58.2415 329.737 58.0431C329.151 57.8446 328.667 57.4231 328.39 56.87C328.113 56.323 328.062 55.6887 328.249 55.1046C328.436 54.5205 328.846 54.0337 329.39 53.75C330.716 53.1302 332.162 52.809 333.625 52.809C335.089 52.809 336.534 53.1302 337.86 53.75C338.338 53.9789 338.723 54.3629 338.954 54.8394C339.185 55.3158 339.248 55.8565 339.132 56.3731C339.015 56.8897 338.728 57.3516 338.315 57.6834C337.902 58.0153 337.39 58.1974 336.86 58.2L336.83 58.17Z" fill="#054DDD"/>
    <path d="M342.51 51.8101C342.03 51.8089 341.561 51.6587 341.17 51.3801C333.64 46.1001 326.42 51.3001 326.35 51.3801C326.102 51.5626 325.821 51.6946 325.523 51.7685C325.224 51.8424 324.914 51.8568 324.61 51.8108C324.306 51.7649 324.014 51.6594 323.75 51.5006C323.487 51.3418 323.258 51.1326 323.075 50.8851C322.892 50.6375 322.76 50.3564 322.687 50.0579C322.613 49.7593 322.598 49.4491 322.644 49.145C322.69 48.8409 322.796 48.5488 322.954 48.2855C323.113 48.0221 323.322 47.7926 323.57 47.6101C326.542 45.5257 330.085 44.4075 333.715 44.4075C337.345 44.4075 340.888 45.5257 343.86 47.6101C344.27 47.8954 344.577 48.3042 344.738 48.7769C344.899 49.2495 344.904 49.7611 344.753 50.237C344.602 50.7129 344.303 51.128 343.9 51.4218C343.496 51.7157 343.009 51.8727 342.51 51.8701V51.8101Z" fill="#054DDD"/>
    <path d="M348.2 45.86C347.683 45.863 347.18 45.6942 346.77 45.38C332.82 34.59 321.44 44.8 320.97 45.24C320.508 45.62 319.919 45.8097 319.322 45.7704C318.726 45.7312 318.166 45.4659 317.758 45.0286C317.35 44.5914 317.125 44.015 317.127 43.417C317.129 42.819 317.359 42.2443 317.77 41.81C317.92 41.67 332.48 28.41 349.64 41.67C350.026 41.9692 350.309 42.3819 350.449 42.85C350.589 43.3182 350.579 43.8185 350.42 44.2806C350.261 44.7427 349.962 45.1435 349.564 45.4267C349.166 45.71 348.689 45.8615 348.2 45.86Z" fill="#054DDD"/>
    <path d="M425.297 103.624C439.508 89.4125 439.508 66.3717 425.297 52.1605C411.086 37.9493 388.045 37.9493 373.834 52.1605C359.622 66.3717 359.622 89.4125 373.834 103.624C388.045 117.835 411.086 117.835 425.297 103.624Z" fill="#FCA232"/>
    <path d="M371.82 54.36C365.754 61.4742 362.659 70.6508 363.179 79.9858C363.698 89.3208 367.791 98.0975 374.61 104.495C381.428 110.892 390.447 114.419 399.796 114.344C409.145 114.268 418.106 110.596 424.82 104.09C383.13 98.2 373.65 70.9 371.82 54.36Z" fill="#F98816"/>
    <path d="M378.483 71.9961H372.577V83H370.362V70.2031H378.483V71.9961ZM388.178 70.2031H390.401V83H388.178V73.8857L382.562 83H380.338V70.2031H382.562V79.3262L388.178 70.2031ZM401.15 71.9961H395.253V75.0986H397.872C398.81 75.0986 399.627 75.2598 400.324 75.582C401.021 75.9043 401.552 76.3613 401.915 76.9531C402.278 77.5449 402.46 78.2305 402.46 79.0098C402.46 80.2051 402.053 81.166 401.238 81.8926C400.43 82.6191 399.325 82.9883 397.925 83H393.029V70.2031H401.15V71.9961ZM395.253 76.8828V81.2246H397.863C398.613 81.2246 399.196 81.0225 399.612 80.6182C400.034 80.208 400.245 79.666 400.245 78.9922C400.245 78.3477 400.04 77.8379 399.63 77.4629C399.22 77.0879 398.651 76.8945 397.925 76.8828H395.253ZM416.153 86.1465H414.044V83H405.615V86.1465H403.471L403.4 81.2246H404.429C404.938 80.7324 405.346 80.0176 405.65 79.0801C405.955 78.1367 406.151 77.0703 406.239 75.8809L406.573 70.2031H414.642V81.2246H416.268L416.153 86.1465ZM406.942 81.2246H412.427V71.9961H408.691L408.48 75.5996C408.322 78.0078 407.81 79.8828 406.942 81.2246ZM429.882 86.1465H427.772V83H419.344V86.1465H417.199L417.129 81.2246H418.157C418.667 80.7324 419.074 80.0176 419.379 79.0801C419.684 78.1367 419.88 77.0703 419.968 75.8809L420.302 70.2031H428.37V81.2246H429.996L429.882 86.1465ZM420.671 81.2246H426.155V71.9961H422.42L422.209 75.5996C422.051 78.0078 421.538 79.8828 420.671 81.2246Z" fill="#FBFFFD"/>
    <path d="M426 303.16H428.68C435.774 302.695 442.425 299.549 447.284 294.36C452.144 289.172 454.848 282.329 454.848 275.22C454.848 268.111 452.144 261.268 447.284 256.08C442.425 250.891 435.774 247.745 428.68 247.28H426C418.934 247.781 412.321 250.941 407.492 256.123C402.664 261.306 399.979 268.126 399.979 275.21C399.979 282.294 402.664 289.114 407.492 294.297C412.321 299.479 418.934 302.639 426 303.14V303.16ZM409.11 293.31C410.895 292.014 412.812 290.911 414.83 290.02C416.767 294.044 419.486 297.641 422.83 300.6C417.627 299.63 412.849 297.086 409.14 293.31H409.11ZM426.41 300.77C422.345 297.734 419.064 293.77 416.84 289.21C419.916 288.098 423.143 287.457 426.41 287.31V300.77ZM426.41 285.15C422.853 285.299 419.341 286.001 416 287.23C414.717 284.04 413.96 280.663 413.76 277.23H426.44L426.41 285.15ZM426.41 275.06H413.7C413.708 271.538 414.296 268.041 415.44 264.71C418.95 266.098 422.669 266.886 426.44 267.04L426.41 275.06ZM431.83 300.67C435.303 297.61 438.105 293.865 440.06 289.67C442.226 290.556 444.288 291.676 446.21 293.01C442.377 297.042 437.344 299.729 431.86 300.67H431.83ZM447.64 291.34C445.542 289.848 443.277 288.606 440.89 287.64C442.175 284.305 442.927 280.789 443.12 277.22H453.22C452.838 282.379 450.903 287.302 447.67 291.34H447.64ZM448.45 260.19C451.578 264.516 453.274 269.712 453.3 275.05H443.22C443.206 271.392 442.609 267.76 441.45 264.29C443.948 263.208 446.309 261.832 448.48 260.19H448.45ZM447.11 258.49C445.119 259.995 442.958 261.261 440.67 262.26C438.711 257.485 435.684 253.222 431.82 249.8C437.794 250.794 443.222 253.873 447.14 258.49H447.11ZM428.57 249.91C433.035 253.326 436.517 257.863 438.66 263.06C435.419 264.219 432.012 264.847 428.57 264.92V249.91ZM428.57 267.08C432.265 267.009 435.923 266.333 439.4 265.08C440.466 268.307 441.016 271.682 441.03 275.08H428.6L428.57 267.08ZM428.57 277.22H441C440.804 280.533 440.096 283.795 438.9 286.89C435.58 285.781 432.11 285.184 428.61 285.12L428.57 277.22ZM428.57 287.28C431.782 287.347 434.967 287.889 438.02 288.89C435.839 293.471 432.6 297.467 428.57 300.55V287.28ZM426.41 249.69V264.89C422.902 264.731 419.445 263.991 416.18 262.7C418.391 257.533 421.931 253.045 426.44 249.69H426.41ZM422.79 249.86C419.078 253.179 416.145 257.276 414.2 261.86C412.068 260.847 410.056 259.599 408.2 258.14C412.014 253.827 417.16 250.912 422.82 249.86H422.79ZM406.79 259.8C408.822 261.398 411.03 262.761 413.37 263.86C412.118 267.465 411.472 271.253 411.46 275.07H401.65C401.69 269.551 403.518 264.193 406.86 259.8H406.79ZM401.73 277.24H411.53C411.762 280.937 412.596 284.572 414 288C411.769 288.985 409.653 290.212 407.69 291.66C404.273 287.584 402.213 282.543 401.8 277.24H401.73Z" fill="#4779F6"/>
    <path d="M116.53 165.89H37.2V182.62H116.53V165.89Z" fill="#4779F6"/>
    <path d="M51.0001 173.35C51.0021 174.375 50.6997 175.378 50.1313 176.232C49.5629 177.085 48.754 177.75 47.8071 178.144C46.8601 178.537 45.8178 178.641 44.812 178.441C43.8063 178.241 42.8824 177.748 42.1573 177.023C41.4323 176.298 40.9387 175.374 40.7392 174.368C40.5396 173.362 40.6431 172.32 41.0364 171.373C41.4297 170.426 42.0951 169.617 42.9485 169.049C43.8019 168.48 44.8048 168.178 45.8301 168.18C47.2005 168.183 48.514 168.728 49.483 169.697C50.4519 170.666 50.9975 171.98 51.0001 173.35Z" fill="white"/>
    <path d="M47.6703 171.46C47.6722 171.819 47.5675 172.17 47.3694 172.469C47.1713 172.769 46.8887 173.002 46.5576 173.14C46.2264 173.279 45.8617 173.315 45.5096 173.246C45.1576 173.176 44.8342 173.004 44.5804 172.75C44.3267 172.496 44.1541 172.173 44.0846 171.821C44.0151 171.469 44.0518 171.104 44.19 170.773C44.3282 170.442 44.5618 170.159 44.8609 169.961C45.1601 169.763 45.5114 169.658 45.8703 169.66C46.3468 169.663 46.8032 169.853 47.1402 170.19C47.4772 170.527 47.6676 170.983 47.6703 171.46Z" fill="#4779F6"/>
    <path d="M45.29 173.39H46.45C47.2457 173.39 48.0087 173.706 48.5714 174.269C49.134 174.831 49.45 175.594 49.45 176.39V178.6H42.29V176.39C42.29 175.594 42.6061 174.831 43.1687 174.269C43.7313 173.706 44.4944 173.39 45.29 173.39Z" fill="#4779F6"/>
    <path d="M106.37 170.15H53.5701V170.95H106.37V170.15Z" fill="white"/>
    <path d="M106.37 172.56H53.5701V173.36H106.37V172.56Z" fill="white"/>
    <path d="M106.37 174.96H53.5701V175.76H106.37V174.96Z" fill="white"/>
    <path d="M106.37 177.36H53.5701V178.16H106.37V177.36Z" fill="white"/>
    <path d="M116.53 188.43H37.2V205.16H116.53V188.43Z" fill="#4779F6"/>
    <path d="M51.0001 195.89C51.0021 196.915 50.6997 197.918 50.1313 198.772C49.5629 199.625 48.754 200.291 47.8071 200.684C46.8601 201.077 45.8178 201.181 44.812 200.981C43.8063 200.781 42.8824 200.288 42.1573 199.563C41.4323 198.838 40.9387 197.914 40.7392 196.908C40.5396 195.902 40.6431 194.86 41.0364 193.913C41.4297 192.966 42.0951 192.157 42.9485 191.589C43.8019 191.02 44.8048 190.718 45.8301 190.72C47.2005 190.723 48.514 191.268 49.483 192.237C50.4519 193.206 50.9975 194.52 51.0001 195.89Z" fill="white"/>
    <path d="M47.67 194C47.67 194.358 47.5636 194.709 47.3643 195.007C47.165 195.305 46.8817 195.536 46.5504 195.673C46.2191 195.81 45.8546 195.845 45.5032 195.774C45.1519 195.704 44.8294 195.53 44.5766 195.276C44.3239 195.022 44.1523 194.699 44.0836 194.347C44.0149 193.995 44.0522 193.631 44.1907 193.3C44.3292 192.97 44.5628 192.688 44.8618 192.49C45.1607 192.293 45.5116 192.188 45.87 192.19C46.3484 192.193 46.8062 192.385 47.1435 192.724C47.4807 193.063 47.6701 193.522 47.67 194Z" fill="#4779F6"/>
    <path d="M45.29 195.93H46.45C47.2457 195.93 48.0087 196.246 48.5714 196.809C49.134 197.371 49.45 198.134 49.45 198.93V201.14H42.29V198.93C42.29 198.134 42.6061 197.371 43.1687 196.809C43.7313 196.246 44.4944 195.93 45.29 195.93Z" fill="#4779F6"/>
    <path d="M106.37 192.7H53.5701V193.5H106.37V192.7Z" fill="white"/>
    <path d="M106.37 195.1H53.5701V195.9H106.37V195.1Z" fill="white"/>
    <path d="M106.37 197.5H53.5701V198.3H106.37V197.5Z" fill="white"/>
    <path d="M106.37 199.9H53.5701V200.7H106.37V199.9Z" fill="white"/>
    <path d="M149 51.6H148.27C148.752 49.6024 148.997 47.555 149 45.5C149.001 40.647 147.638 35.8913 145.066 31.7759C142.494 27.6606 138.816 24.3514 134.453 22.2262C130.09 20.101 125.217 19.2454 120.391 19.7571C115.565 20.2688 110.98 22.1272 107.16 25.12C104.864 20.2219 101.091 16.166 96.3711 13.5222C91.6515 10.8784 86.2222 9.7794 80.8459 10.3796C75.4695 10.9798 70.4163 13.249 66.3958 16.8685C62.3754 20.4881 59.5897 25.2761 58.4301 30.56C54.8009 29.2911 50.9349 28.8457 47.1122 29.2561C43.2896 29.6666 39.6062 30.9225 36.3292 32.933C33.0521 34.9435 30.2636 37.658 28.1657 40.8798C26.0678 44.1016 24.7132 47.7498 24.2001 51.56H23.9701C20.4736 51.557 17.0388 52.4809 14.0156 54.2376C10.9924 55.9942 8.48888 58.5208 6.76008 61.56C6.55577 61.922 6.44979 62.3311 6.45269 62.7467C6.4556 63.1623 6.56728 63.5699 6.77663 63.9289C6.98598 64.2879 7.2857 64.5859 7.64596 64.7931C8.00622 65.0003 8.41447 65.1096 8.83008 65.11H164.1C164.516 65.1109 164.925 65.0022 165.285 64.795C165.646 64.5878 165.946 64.2893 166.155 63.9295C166.363 63.5698 166.474 63.1614 166.475 62.7455C166.476 62.3296 166.367 61.9207 166.16 61.56C164.432 58.5343 161.934 56.0193 158.921 54.2701C155.907 52.521 152.485 51.5998 149 51.6Z" fill="#E4F4FE"/>
    <path d="M86.03 70.5001L68.54 40.1901L51.04 70.5001H62.7V108.34H74.37V70.5001H86.03Z" fill="#4779F6"/>
    <path d="M86.8401 78.0301L104.34 108.34L121.83 78.0301H110.17V40.1901H98.5001V78.0301H86.8401Z" fill="#FCA232"/>
    <g opacity="0.51">
        <path opacity="0.51" d="M481.56 143.26H361.61V208.32H481.56V143.26Z" fill="#4779F6"/>
        <path opacity="0.51" d="M466.95 149.88H367.05V154.56H466.95V149.88Z" fill="#E4EAFE"/>
        <path opacity="0.51" d="M436.89 157.48H367.05V162.16H436.89V157.48Z" fill="#E4EAFE"/>
        <path opacity="0.51" d="M452.52 165.08H367.05V169.76H452.52V165.08Z" fill="#E4EAFE"/>
        <path opacity="0.51" d="M466.95 172.68H367.05V177.36H466.95V172.68Z" fill="#E4EAFE"/>
        <path opacity="0.51" d="M459.24 180.29H367.05V184.97H459.24V180.29Z" fill="#E4EAFE"/>
        <path opacity="0.51" d="M448.98 187.89H367.05V192.57H448.98V187.89Z" fill="#E4EAFE"/>
        <path opacity="0.51" d="M461.21 195.49H367.05V200.17H461.21V195.49Z" fill="#E4EAFE"/>
    </g>
    <path d="M93.8001 258.53H16.6101V303.47H93.8001V258.53Z" fill="#FCA232"/>
    <path d="M16.6101 303.47L55.2101 278.24L93.8101 303.47H16.6101Z" fill="#FFB564"/>
    <path d="M16.6101 258.53L55.2101 289.52L93.8101 258.53H16.6101Z" fill="#F98816"/>
    <path d="M244.59 15.19H223.59C221.055 15.19 219 17.245 219 19.78V60.6C219 63.135 221.055 65.19 223.59 65.19H244.59C247.125 65.19 249.18 63.135 249.18 60.6V19.78C249.18 17.245 247.125 15.19 244.59 15.19Z" fill="#130751"/>
    <path d="M242.85 17.5601H225.33C223.215 17.5601 221.5 19.2748 221.5 21.3901V55.4401C221.5 57.5553 223.215 59.2701 225.33 59.2701H242.85C244.965 59.2701 246.68 57.5553 246.68 55.4401V21.3901C246.68 19.2748 244.965 17.5601 242.85 17.5601Z" fill="#B6CEFF"/>
    <path d="M216.34 49.51L244.74 11.35H251.55L216.34 59.27V49.51Z" fill="white"/>
    <path d="M219 64.6001L252.73 17.5601V22.0001L219 69.9201V64.6001Z" fill="white"/>
    <path d="M235.57 61.94C235.57 62.2327 235.483 62.5189 235.321 62.7623C235.158 63.0057 234.927 63.1953 234.656 63.3074C234.386 63.4194 234.088 63.4487 233.801 63.3916C233.514 63.3345 233.251 63.1935 233.044 62.9865C232.837 62.7796 232.696 62.5158 232.639 62.2288C232.581 61.9417 232.611 61.6441 232.723 61.3736C232.835 61.1032 233.024 60.8721 233.268 60.7094C233.511 60.5468 233.797 60.46 234.09 60.46C234.483 60.46 234.859 60.616 235.137 60.8935C235.414 61.1711 235.57 61.5475 235.57 61.94Z" fill="white"/>
    <path d="M283.11 26.58H242.58V57.38H283.11V26.58Z" fill="white"/>
    <path d="M255.13 50.93L246.41 42.2L255.25 33.36L256.74 34.84L249.37 42.2L256.62 49.44L255.13 50.93Z" fill="#054DDD"/>
    <path d="M270.11 50.93L268.63 49.44L275.99 42.08L268.75 34.84L270.23 33.36L278.96 42.08L270.11 50.93Z" fill="#054DDD"/>
    <path d="M264.916 34.3703L258.526 49.7888L260.466 50.5927L266.856 35.1743L264.916 34.3703Z" fill="#054DDD"/>
    <path d="M283.11 23H242.58V26.59H283.11V23Z" fill="#054DDD"/>
</svg>
