<svg width="467" height="372" viewBox="0 0 467 372" fill="none" xmlns="http://www.w3.org/2000/svg">
    <g clip-path="url(#clip0)">
        <path d="M397.278 102.625H197.619V270.044H397.278V102.625Z" fill="url(#paint0_linear)"/>
        <path d="M404.204 80.9037L190.562 82.2549C187.664 82.2736 185.273 84.3946 185.273 86.9959V118.885C185.273 121.388 187.529 123.432 190.319 123.449L404.205 124.799C407.377 124.819 410.05 122.667 410.05 119.992V85.7108C410.05 83.0359 407.376 80.8825 404.204 80.9037Z" fill="url(#paint1_linear)"/>
        <path d="M404.108 80.9037L190.316 82.2549C187.526 82.2724 185.268 84.316 185.268 86.8187L409.854 85.7158C409.854 83.0359 407.278 80.8825 404.108 80.9037Z" fill="url(#paint2_linear)"/>
        <path d="M190.316 123.449L404.108 124.799C407.28 124.819 409.855 122.667 409.855 119.992L185.268 118.885C185.268 121.388 187.526 123.427 190.316 123.449Z" fill="url(#paint3_linear)"/>
        <path d="M404.376 134.093L190.57 133.649C187.577 133.649 185.107 135.808 185.075 138.486L184.665 171.411C184.634 174 186.94 176.118 189.825 176.144L404.366 178.016C407.452 178.042 410.05 175.895 410.05 173.211V138.937C410.05 136.267 407.454 134.099 404.376 134.093Z" fill="url(#paint4_linear)"/>
        <path d="M404.277 134.093L190.32 133.649C187.441 133.649 185.084 135.727 185.052 138.306L409.854 138.937C409.854 136.267 407.356 134.099 404.277 134.093Z" fill="url(#paint5_linear)"/>
        <path d="M189.819 176.144L404.266 178.016C407.352 178.042 409.856 175.895 409.856 173.211L184.654 171.411C184.622 174 186.934 176.118 189.819 176.144Z" fill="url(#paint6_linear)"/>
        <path d="M404.467 187.399H190.862C187.773 187.399 185.273 189.679 185.273 192.456V226.547C185.273 229.222 187.679 231.277 190.656 231.277H404.467C407.442 231.277 410.05 229.222 410.05 226.547V192.27C410.05 189.595 407.442 187.399 404.467 187.399Z" fill="url(#paint7_linear)"/>
        <path d="M404.467 187.399H190.658C187.682 187.399 185.271 189.529 185.271 192.085H409.854C409.854 189.529 407.442 187.399 404.467 187.399Z" fill="url(#paint8_linear)"/>
        <path d="M190.658 231.277H404.469C407.444 231.277 409.857 229.147 409.857 226.591H185.268C185.268 229.147 187.679 231.277 190.658 231.277Z" fill="url(#paint9_linear)"/>
        <path d="M404.694 241.568L190.968 240.73C187.823 240.719 185.273 242.962 185.273 245.741V279.832C185.273 282.506 187.727 284.674 190.759 284.676L404.583 284.758C407.506 284.758 409.88 282.637 409.888 280.006L409.981 246.347C409.983 243.72 407.619 241.578 404.694 241.568Z" fill="url(#paint10_linear)"/>
        <path d="M404.694 241.568L190.755 240.73C187.726 240.718 185.269 242.879 185.269 245.555L409.977 246.347C409.983 243.72 407.619 241.578 404.694 241.568Z" fill="url(#paint11_linear)"/>
        <path d="M190.752 284.676L404.575 284.758C407.498 284.758 409.873 282.637 409.88 280.006L185.268 279.833C185.268 282.506 187.724 284.675 190.752 284.676Z" fill="url(#paint12_linear)"/>
        <g opacity="0.3">
            <path opacity="0.3" d="M390.702 48.9582C390.412 48.9082 390.145 48.7706 389.935 48.5639C389.407 48.0399 388.857 47.5196 388.303 47.0156C388.031 46.7554 387.87 46.3988 387.857 46.0219C387.844 45.6451 387.978 45.2779 388.232 44.999C388.485 44.7201 388.838 44.5516 389.214 44.5295C389.59 44.5074 389.96 44.6336 390.245 44.8809C390.828 45.4111 391.405 45.9576 391.961 46.5028C392.18 46.7187 392.325 46.9989 392.373 47.3026C392.422 47.6063 392.372 47.9176 392.232 48.1911C392.091 48.4646 391.867 48.686 391.592 48.8231C391.317 48.9602 391.005 49.0058 390.702 48.9532V48.9582Z" fill="url(#paint13_linear)"/>
        </g>
        <g opacity="0.3">
            <path opacity="0.3" d="M407.454 89.6484C407.116 89.5895 406.811 89.4123 406.592 89.1485C406.373 88.8848 406.255 88.5516 406.258 88.2087C406.268 87.4601 406.258 86.7115 406.24 85.9629C406.233 85.7728 406.264 85.5834 406.331 85.4054C406.398 85.2274 406.5 85.0644 406.63 84.9257C406.76 84.7871 406.916 84.6755 407.089 84.5975C407.263 84.5194 407.45 84.4764 407.64 84.4709C407.83 84.4654 408.019 84.4975 408.196 84.5654C408.374 84.6333 408.536 84.7356 408.674 84.8665C408.812 84.9973 408.923 85.1542 409 85.328C409.077 85.5018 409.119 85.6892 409.124 85.8793C409.147 86.6678 409.154 87.4651 409.144 88.2498C409.139 88.6325 408.982 88.9975 408.708 89.2647C408.435 89.5318 408.066 89.6793 407.684 89.6746C407.606 89.6723 407.53 89.6635 407.454 89.6484Z" fill="url(#paint14_linear)"/>
        </g>
        <g opacity="0.3">
            <path opacity="0.3" d="M240.23 114.414C240.041 114.381 239.867 114.287 239.735 114.147C239.602 114.007 239.519 113.828 239.497 113.637C239.411 112.888 239.346 112.119 239.305 111.363C239.295 111.244 239.308 111.124 239.345 111.01C239.381 110.896 239.441 110.79 239.519 110.7C239.597 110.609 239.693 110.536 239.801 110.483C239.908 110.43 240.025 110.399 240.144 110.393C240.264 110.386 240.384 110.404 240.496 110.445C240.609 110.485 240.712 110.548 240.8 110.63C240.887 110.711 240.958 110.81 241.007 110.919C241.056 111.028 241.082 111.146 241.084 111.266C241.123 111.987 241.185 112.716 241.268 113.433C241.294 113.668 241.227 113.904 241.08 114.09C240.933 114.275 240.718 114.394 240.483 114.421C240.399 114.43 240.314 114.428 240.23 114.414Z" fill="url(#paint15_linear)"/>
        </g>
        <g opacity="0.3">
            <path opacity="0.3" d="M251.545 137.261C251.37 137.231 251.207 137.149 251.08 137.025C250.53 136.496 249.994 135.948 249.485 135.403C249.402 135.318 249.337 135.216 249.293 135.105C249.25 134.994 249.229 134.876 249.232 134.757C249.235 134.638 249.262 134.52 249.311 134.412C249.361 134.303 249.431 134.206 249.518 134.125C249.606 134.044 249.709 133.981 249.821 133.941C249.933 133.9 250.052 133.883 250.171 133.889C250.29 133.896 250.406 133.926 250.513 133.978C250.62 134.03 250.716 134.103 250.794 134.193C251.279 134.718 251.792 135.241 252.315 135.745C252.453 135.877 252.545 136.05 252.577 136.238C252.61 136.427 252.58 136.621 252.494 136.791C252.408 136.962 252.269 137.1 252.098 137.185C251.927 137.271 251.733 137.299 251.545 137.266V137.261Z" fill="url(#paint16_linear)"/>
        </g>
        <path d="M295.212 85.3203C294.86 85.2603 294.543 85.0718 294.323 84.7913C294.102 84.5108 293.993 84.1583 294.017 83.802C294.125 82.1801 294.306 80.5294 294.554 78.9088C294.612 78.5304 294.818 78.1906 295.126 77.9641C295.435 77.7377 295.82 77.643 296.198 77.7011H296.226C296.598 77.7653 296.93 77.9732 297.151 78.2801C297.371 78.5869 297.463 78.9681 297.405 79.3417C297.17 80.88 296.998 82.4445 296.894 83.9904C296.882 84.1795 296.832 84.3643 296.748 84.5342C296.664 84.7041 296.548 84.8557 296.405 84.9805C296.263 85.1053 296.097 85.2008 295.917 85.2614C295.738 85.3221 295.548 85.3468 295.359 85.3341C295.31 85.332 295.261 85.3274 295.212 85.3203ZM297.444 72.9451C297.388 72.935 297.332 72.9221 297.277 72.9064C297.095 72.8524 296.926 72.763 296.779 72.6435C296.632 72.5241 296.51 72.3768 296.42 72.21C296.33 72.0433 296.273 71.8605 296.253 71.6719C296.234 71.4833 296.252 71.2928 296.306 71.1111C296.772 69.5415 297.309 67.977 297.905 66.4599C297.971 66.2794 298.073 66.114 298.204 65.9734C298.335 65.8327 298.492 65.7196 298.668 65.6407C298.843 65.5619 299.032 65.5188 299.224 65.514C299.416 65.5093 299.607 65.543 299.786 65.6131C299.965 65.6832 300.128 65.7884 300.265 65.9224C300.403 66.0564 300.513 66.2166 300.588 66.3936C300.663 66.5705 300.702 66.7607 300.702 66.9529C300.703 67.1451 300.665 67.3355 300.591 67.5129C300.025 68.9552 299.514 70.4423 299.071 71.9345C298.971 72.2731 298.749 72.563 298.45 72.7493C298.15 72.9356 297.792 73.0052 297.444 72.9451ZM302.344 61.3696C302.182 61.341 302.025 61.2853 301.881 61.2049C301.548 61.0162 301.304 60.7032 301.201 60.3345C301.098 59.9657 301.146 59.5712 301.333 59.2374C302.136 57.8138 303.008 56.4077 303.931 55.0578C304.036 54.896 304.171 54.7568 304.331 54.6484C304.49 54.5399 304.669 54.4645 304.858 54.4264C305.046 54.3884 305.241 54.3885 305.429 54.4269C305.618 54.4652 305.797 54.541 305.956 54.6496C306.115 54.7583 306.251 54.8978 306.355 55.0597C306.459 55.2217 306.53 55.4029 306.563 55.5927C306.597 55.7824 306.591 55.9769 306.548 56.1647C306.505 56.3525 306.425 56.5297 306.312 56.6859C305.44 57.9685 304.608 59.306 303.846 60.6559C303.7 60.9155 303.477 61.1234 303.208 61.2512C302.939 61.379 302.637 61.4203 302.344 61.3696ZM309.709 51.1789C309.454 51.1346 309.216 51.0226 309.019 50.8546C308.823 50.6867 308.675 50.469 308.591 50.2243C308.507 49.9796 308.491 49.7169 308.543 49.4637C308.596 49.2104 308.715 48.9759 308.89 48.7847C309.99 47.5757 311.156 46.4005 312.356 45.2913C312.637 45.0314 313.009 44.8939 313.392 44.909C313.774 44.9241 314.135 45.0905 314.395 45.3718C314.654 45.6531 314.792 46.026 314.777 46.4087C314.762 46.7914 314.595 47.1524 314.314 47.4123C313.176 48.4665 312.07 49.5819 311.023 50.731C310.859 50.9101 310.653 51.0451 310.423 51.1234C310.193 51.2017 309.948 51.2208 309.709 51.1789ZM319.161 42.8871C318.878 42.8388 318.617 42.7075 318.41 42.51C318.203 42.3126 318.059 42.0579 317.997 41.7783C317.935 41.4988 317.957 41.2071 318.062 40.9404C318.166 40.6737 318.347 40.4441 318.582 40.2808C319.92 39.3489 321.316 38.4605 322.733 37.6421C322.897 37.5347 323.081 37.462 323.274 37.4282C323.467 37.3945 323.665 37.4006 323.856 37.446C324.047 37.4914 324.226 37.5753 324.383 37.6924C324.541 37.8096 324.672 37.9576 324.771 38.1274C324.869 38.2973 324.931 38.4853 324.954 38.6802C324.978 38.875 324.961 39.0725 324.905 39.2606C324.849 39.4487 324.756 39.6235 324.63 39.7742C324.505 39.925 324.35 40.0485 324.175 40.1374C322.829 40.9146 321.501 41.7593 320.23 42.6451C319.92 42.8638 319.535 42.9508 319.161 42.8871ZM330.207 36.8985C329.898 36.845 329.615 36.6923 329.401 36.4636C329.186 36.2348 329.052 35.9424 329.019 35.6306C328.985 35.3188 329.054 35.0045 329.215 34.7353C329.376 34.4662 329.62 34.2568 329.91 34.1387C331.423 33.5249 332.981 32.9685 334.542 32.4844C334.908 32.3712 335.303 32.408 335.642 32.5866C335.98 32.7653 336.234 33.0712 336.347 33.437C336.46 33.8028 336.423 34.1985 336.245 34.5372C336.066 34.8759 335.76 35.1297 335.395 35.2429C333.912 35.702 332.431 36.231 330.994 36.8137C330.744 36.9146 330.472 36.9428 330.207 36.8948V36.8985ZM382.879 42.5228C382.676 42.4879 382.483 42.4096 382.314 42.2933C381.032 41.4199 379.696 40.5927 378.342 39.8317C378.013 39.6418 377.773 39.33 377.672 38.9638C377.572 38.5977 377.619 38.2067 377.805 37.8755C377.991 37.5443 378.299 37.2997 378.664 37.1946C379.028 37.0895 379.42 37.1324 379.753 37.314C381.181 38.1149 382.588 38.9883 383.937 39.9065C384.213 40.0911 384.416 40.3648 384.513 40.6818C384.611 40.9987 384.596 41.3396 384.472 41.647C384.348 41.9544 384.122 42.2097 383.831 42.3699C383.541 42.5301 383.205 42.5854 382.879 42.5266V42.5228ZM342.3 33.5074C341.963 33.4491 341.659 33.2735 341.44 33.0117C341.221 32.7499 341.102 32.4189 341.104 32.0776C341.105 31.7362 341.228 31.4065 341.45 31.147C341.671 30.8876 341.978 30.7151 342.315 30.6603C343.927 30.3983 345.569 30.2037 347.197 30.0814C347.388 30.0632 347.581 30.0833 347.764 30.1406C347.947 30.1978 348.117 30.291 348.263 30.4147C348.41 30.5384 348.531 30.6901 348.618 30.861C348.705 31.0319 348.758 31.2185 348.772 31.4099C348.787 31.6013 348.763 31.7937 348.702 31.9757C348.641 32.1578 348.545 32.3259 348.418 32.4702C348.292 32.6145 348.138 32.7322 347.965 32.8162C347.793 32.9003 347.605 32.9491 347.414 32.9597C345.867 33.0758 344.307 33.2617 342.777 33.5099C342.619 33.5347 342.457 33.5326 342.3 33.5037V33.5074ZM371.76 36.664C371.664 36.6477 371.571 36.6217 371.481 36.5866C370.036 36.0227 368.547 35.5136 367.057 35.0732C366.872 35.0222 366.7 34.9348 366.549 34.8163C366.399 34.6977 366.273 34.5504 366.18 34.3828C366.087 34.2153 366.029 34.0309 366.008 33.8404C365.986 33.6499 366.004 33.4571 366.058 33.2732C366.112 33.0894 366.202 32.9182 366.323 32.7697C366.444 32.6211 366.594 32.4982 366.763 32.408C366.932 32.3179 367.117 32.2623 367.308 32.2446C367.499 32.2268 367.691 32.2473 367.874 32.3047C369.442 32.7676 371.008 33.3028 372.528 33.8967C372.86 34.0269 373.133 34.276 373.293 34.5957C373.452 34.9153 373.488 35.2829 373.392 35.6272C373.297 35.9716 373.077 36.2682 372.775 36.4597C372.474 36.6512 372.112 36.724 371.76 36.664ZM354.846 32.9048C354.658 32.8825 354.476 32.8232 354.31 32.7305C354.145 32.6377 353.999 32.5132 353.882 32.3642C353.645 32.0632 353.537 31.6803 353.582 31.2998C353.627 30.9192 353.822 30.5722 354.123 30.3351C354.423 30.098 354.806 29.9901 355.186 30.0353C356.815 30.1413 358.459 30.3185 360.076 30.5643H360.106C360.48 30.6302 360.812 30.8405 361.032 31.1497C361.251 31.4589 361.34 31.8422 361.28 32.2167C361.219 32.5912 361.014 32.9267 360.708 33.1508C360.402 33.3748 360.02 33.4693 359.645 33.4139C358.109 33.1806 356.547 33.0121 354.999 32.9148C354.948 32.9128 354.897 32.9083 354.846 32.9011V32.9048Z" fill="#F98816"/>
        <path d="M341.761 144.407C341.108 144.294 340.453 144.169 339.797 144.033C339.423 143.955 339.094 143.731 338.885 143.411C338.675 143.091 338.601 142.7 338.678 142.325C338.756 141.95 338.98 141.622 339.3 141.412C339.62 141.202 340.01 141.128 340.385 141.206C341.896 141.52 343.417 141.772 344.923 141.954C345.111 141.977 345.293 142.037 345.458 142.131C345.623 142.224 345.768 142.349 345.885 142.499C346.002 142.648 346.088 142.819 346.139 143.002C346.19 143.185 346.204 143.376 346.181 143.565C346.158 143.753 346.098 143.935 346.005 144.1C345.911 144.266 345.786 144.411 345.637 144.528C345.487 144.645 345.316 144.731 345.133 144.782C344.951 144.833 344.76 144.847 344.571 144.824C343.639 144.708 342.695 144.568 341.761 144.407ZM332.465 141.977C332.384 141.962 332.304 141.941 332.227 141.914C330.71 141.376 329.199 140.768 327.739 140.106C327.39 139.949 327.118 139.659 326.983 139.301C326.848 138.943 326.86 138.546 327.018 138.197C327.175 137.849 327.465 137.577 327.822 137.442C328.18 137.306 328.577 137.319 328.925 137.476C330.316 138.1 331.752 138.682 333.193 139.193C333.534 139.314 333.817 139.558 333.986 139.877C334.156 140.197 334.199 140.568 334.108 140.918C334.017 141.268 333.797 141.571 333.494 141.767C333.19 141.963 332.824 142.038 332.468 141.977H332.465ZM352.152 145.22C351.793 145.164 351.468 144.974 351.243 144.689C351.018 144.403 350.909 144.044 350.937 143.681C350.966 143.319 351.13 142.98 351.397 142.734C351.664 142.487 352.014 142.35 352.377 142.351C353.901 142.328 355.445 142.24 356.966 142.088C357.336 142.068 357.7 142.192 357.981 142.434C358.263 142.675 358.44 143.016 358.477 143.385C358.514 143.755 358.408 144.124 358.179 144.417C357.951 144.709 357.619 144.903 357.252 144.957C355.65 145.117 354.024 145.207 352.42 145.234C352.33 145.239 352.241 145.235 352.152 145.223V145.22ZM321.331 136.581C321.146 136.548 320.968 136.48 320.809 136.38C319.449 135.521 318.107 134.596 316.825 133.627C316.669 133.515 316.537 133.373 316.437 133.209C316.337 133.045 316.27 132.862 316.242 132.672C316.213 132.482 316.222 132.288 316.269 132.101C316.316 131.915 316.4 131.74 316.516 131.586C316.632 131.433 316.777 131.304 316.943 131.207C317.109 131.111 317.293 131.048 317.484 131.024C317.674 130.999 317.868 131.013 318.053 131.065C318.238 131.116 318.411 131.204 318.562 131.323C319.78 132.243 321.056 133.122 322.346 133.943C322.629 134.121 322.841 134.392 322.946 134.709C323.052 135.026 323.044 135.37 322.924 135.682C322.804 135.994 322.58 136.255 322.289 136.42C321.999 136.585 321.66 136.644 321.331 136.587V136.581ZM364.413 143.668C364.086 143.611 363.789 143.444 363.571 143.193C363.353 142.942 363.228 142.625 363.217 142.293C363.207 141.961 363.31 141.636 363.511 141.371C363.711 141.107 363.997 140.92 364.319 140.841C365.8 140.484 367.287 140.058 368.738 139.576C368.919 139.511 369.111 139.482 369.304 139.492C369.496 139.502 369.684 139.55 369.858 139.634C370.031 139.718 370.186 139.836 370.313 139.981C370.44 140.126 370.537 140.295 370.598 140.478C370.658 140.661 370.682 140.854 370.667 141.046C370.652 141.238 370.598 141.426 370.51 141.597C370.421 141.768 370.3 141.92 370.151 142.043C370.003 142.166 369.832 142.259 369.648 142.315C368.121 142.824 366.556 143.272 364.996 143.648C364.805 143.696 364.607 143.703 364.413 143.671V143.668ZM376.036 139.46C375.736 139.409 375.459 139.264 375.246 139.045C375.033 138.827 374.895 138.546 374.852 138.244C374.808 137.942 374.862 137.634 375.004 137.364C375.147 137.094 375.371 136.877 375.645 136.743C377.016 136.068 378.374 135.327 379.682 134.542C379.845 134.444 380.026 134.38 380.214 134.352C380.401 134.324 380.593 134.334 380.777 134.38C380.961 134.427 381.135 134.509 381.287 134.622C381.44 134.736 381.568 134.878 381.666 135.041C381.763 135.204 381.828 135.385 381.855 135.573C381.883 135.761 381.873 135.952 381.827 136.137C381.781 136.321 381.699 136.495 381.585 136.647C381.472 136.8 381.33 136.928 381.167 137.026C379.796 137.852 378.36 138.632 376.918 139.342C376.644 139.474 376.336 139.517 376.036 139.463V139.46ZM386.468 132.818C386.195 132.77 385.94 132.645 385.736 132.457C385.532 132.268 385.386 132.025 385.317 131.756C385.247 131.487 385.257 131.203 385.345 130.939C385.432 130.675 385.594 130.443 385.811 130.269C387.003 129.312 388.169 128.293 389.274 127.241C389.551 126.976 389.922 126.833 390.305 126.843C390.689 126.852 391.052 127.014 391.316 127.291C391.581 127.569 391.724 127.941 391.714 128.324C391.705 128.707 391.544 129.071 391.266 129.336C390.103 130.442 388.877 131.515 387.623 132.523C387.463 132.652 387.277 132.745 387.078 132.796C386.878 132.848 386.671 132.856 386.468 132.82V132.818ZM395.202 124.057C394.955 124.014 394.724 123.907 394.53 123.748C394.337 123.588 394.189 123.381 394.1 123.146C394.011 122.912 393.985 122.658 394.024 122.411C394.063 122.163 394.165 121.93 394.322 121.734C395.276 120.539 396.192 119.29 397.037 118.021C397.142 117.863 397.278 117.728 397.435 117.623C397.593 117.517 397.769 117.444 397.955 117.407C398.141 117.37 398.332 117.37 398.517 117.407C398.703 117.444 398.88 117.518 399.037 117.623C399.195 117.728 399.33 117.863 399.435 118.021C399.54 118.178 399.613 118.355 399.65 118.541C399.687 118.727 399.687 118.918 399.65 119.104C399.613 119.29 399.54 119.466 399.435 119.624C398.542 120.961 397.581 122.276 396.577 123.535C396.416 123.738 396.203 123.893 395.961 123.985C395.719 124.078 395.457 124.103 395.202 124.059V124.057ZM401.804 113.587C401.67 113.564 401.541 113.522 401.42 113.462C401.249 113.379 401.097 113.264 400.971 113.122C400.845 112.981 400.749 112.816 400.686 112.637C400.624 112.458 400.598 112.268 400.609 112.079C400.62 111.89 400.669 111.705 400.751 111.534C401.416 110.162 402.032 108.742 402.58 107.315C402.718 106.957 402.992 106.669 403.341 106.514C403.691 106.358 404.088 106.348 404.445 106.486C404.802 106.623 405.09 106.897 405.245 107.247C405.401 107.597 405.411 107.994 405.274 108.352C404.695 109.849 404.048 111.346 403.347 112.793C403.211 113.075 402.987 113.306 402.708 113.449C402.43 113.593 402.112 113.642 401.804 113.589V113.587ZM405.943 101.929L405.856 101.911C405.483 101.823 405.161 101.591 404.96 101.265C404.759 100.94 404.696 100.547 404.784 100.175C405.043 99.0792 405.271 97.9626 405.462 96.856C405.53 96.4559 405.594 96.0554 405.655 95.6545C405.683 95.4671 405.748 95.287 405.846 95.1247C405.944 94.9624 406.073 94.821 406.225 94.7085C406.378 94.596 406.551 94.5146 406.735 94.4691C406.919 94.4236 407.11 94.4147 407.297 94.443C407.485 94.4692 407.666 94.5327 407.83 94.6299C407.993 94.727 408.135 94.8559 408.248 95.0088C408.361 95.1618 408.442 95.3357 408.487 95.5205C408.532 95.7053 408.539 95.8972 408.509 96.0849C408.445 96.5054 408.377 96.9258 408.304 97.3488C408.104 98.5116 407.863 99.6868 407.591 100.842C407.507 101.199 407.289 101.511 406.983 101.713C406.676 101.916 406.305 101.994 405.943 101.931V101.929Z" fill="#F98816"/>
        <path d="M311.634 128.844C311.342 128.794 311.072 128.654 310.862 128.445C310.308 127.892 309.757 127.322 309.221 126.739C308.962 126.458 308.824 126.085 308.839 125.702C308.854 125.32 309.021 124.959 309.302 124.699C309.583 124.439 309.956 124.301 310.338 124.316C310.72 124.331 311.081 124.498 311.341 124.779C311.85 125.331 312.373 125.876 312.899 126.401C313.116 126.618 313.259 126.898 313.306 127.201C313.353 127.504 313.302 127.815 313.161 128.087C313.02 128.36 312.796 128.58 312.521 128.716C312.247 128.853 311.936 128.898 311.634 128.845V128.844Z" fill="#F98816"/>
        <path d="M240.076 107.557C239.859 107.519 239.663 107.402 239.527 107.228C239.392 107.054 239.325 106.836 239.34 106.616C239.432 105.311 239.589 104.012 239.812 102.722C239.857 102.453 239.907 102.183 239.96 101.911C240.012 101.683 240.149 101.483 240.343 101.352C240.537 101.221 240.774 101.169 241.005 101.205C241.237 101.25 241.441 101.386 241.573 101.582C241.705 101.778 241.754 102.019 241.709 102.251C241.659 102.51 241.612 102.769 241.567 103.027C241.355 104.256 241.205 105.495 241.118 106.74C241.102 106.976 240.992 107.195 240.814 107.351C240.635 107.506 240.403 107.584 240.167 107.568C240.137 107.566 240.106 107.562 240.076 107.557ZM241.845 98.4741C241.803 98.4665 241.761 98.4565 241.72 98.4442C241.496 98.3708 241.31 98.2114 241.203 98.001C241.095 97.7906 241.076 97.5462 241.148 97.3213C241.639 95.8151 242.222 94.3405 242.894 92.906C242.939 92.7942 243.007 92.6929 243.092 92.6081C243.178 92.5232 243.28 92.4567 243.392 92.4125C243.504 92.3683 243.624 92.3473 243.744 92.3508C243.865 92.3544 243.983 92.3824 244.093 92.4331C244.202 92.4838 244.3 92.5563 244.381 92.646C244.461 92.7357 244.523 92.8408 244.561 92.9551C244.6 93.0693 244.615 93.1902 244.606 93.3104C244.596 93.4306 244.563 93.5477 244.507 93.6545C243.869 95.0234 243.315 96.4301 242.849 97.8666C242.783 98.0723 242.646 98.2474 242.461 98.3592C242.276 98.4709 242.058 98.5118 241.845 98.4741ZM245.766 90.0851C245.652 90.0643 245.542 90.022 245.443 89.9603C245.344 89.898 245.258 89.8168 245.191 89.7213C245.123 89.6258 245.075 89.5179 245.049 89.4038C245.023 89.2896 245.02 89.1715 245.04 89.0561C245.059 88.9408 245.102 88.8304 245.164 88.7314C246.008 87.3908 246.934 86.1034 247.936 84.8762C248.01 84.7855 248.101 84.7103 248.204 84.655C248.307 84.5996 248.421 84.5651 248.537 84.5534C248.654 84.5418 248.771 84.5532 248.883 84.5871C248.996 84.621 249.1 84.6766 249.19 84.7508C249.281 84.825 249.356 84.9164 249.412 85.0197C249.467 85.123 249.501 85.2361 249.513 85.3527C249.525 85.4693 249.513 85.5871 249.479 85.6993C249.446 85.8115 249.39 85.9159 249.316 86.0066C248.36 87.1755 247.477 88.4026 246.673 89.6808C246.579 89.8306 246.442 89.9491 246.281 90.0211C246.119 90.0931 245.94 90.1153 245.766 90.0851ZM251.626 82.9187C251.463 82.8905 251.312 82.8176 251.188 82.7083C251.065 82.5989 250.974 82.4573 250.926 82.2993C250.878 82.1413 250.875 81.9731 250.917 81.8135C250.96 81.6538 251.045 81.5091 251.165 81.3953C252.311 80.303 253.522 79.2818 254.793 78.3374C254.983 78.201 255.219 78.1448 255.45 78.1812C255.682 78.2175 255.889 78.3433 256.029 78.5315C256.168 78.7197 256.228 78.9551 256.195 79.187C256.162 79.4189 256.04 79.6286 255.854 79.7709C254.642 80.6702 253.486 81.6435 252.394 82.6854C252.293 82.7818 252.171 82.8532 252.038 82.8937C251.904 82.9342 251.763 82.9428 251.626 82.9187ZM259.056 77.4029C258.875 77.3714 258.708 77.2848 258.578 77.1549C258.448 77.025 258.362 76.8581 258.33 76.6771C258.299 76.4961 258.324 76.3097 258.402 76.1435C258.48 75.9773 258.608 75.8394 258.768 75.7485C260.144 74.9679 261.567 74.2721 263.028 73.665C263.244 73.5833 263.484 73.589 263.696 73.6809C263.909 73.7728 264.077 73.9438 264.166 74.1576C264.255 74.3714 264.257 74.6114 264.172 74.8268C264.087 75.0422 263.922 75.2161 263.711 75.3119C262.317 75.8913 260.96 76.555 259.647 77.2993C259.466 77.4028 259.254 77.4395 259.049 77.4029H259.056ZM267.585 73.8584C267.386 73.8235 267.204 73.7219 267.07 73.5703C266.937 73.4186 266.858 73.2259 266.848 73.0238C266.838 72.8217 266.897 72.6222 267.015 72.458C267.134 72.2939 267.304 72.1748 267.499 72.1204C269.023 71.6981 270.572 71.3706 272.137 71.1398C272.367 71.1137 272.598 71.178 272.781 71.3192C272.964 71.4604 273.086 71.6673 273.119 71.8963C273.153 72.1253 273.096 72.3585 272.961 72.5465C272.827 72.7345 272.624 72.8627 272.396 72.9039C270.905 73.1237 269.428 73.4358 267.975 73.8384C267.848 73.8735 267.715 73.8803 267.585 73.8584ZM276.731 72.5109C276.514 72.4727 276.318 72.3547 276.182 72.1801C276.046 72.0054 275.98 71.7865 275.997 71.5659C276.013 71.3452 276.111 71.1386 276.271 70.986C276.431 70.8335 276.642 70.746 276.863 70.7405C278.445 70.7072 280.027 70.7706 281.601 70.9302C281.72 70.9384 281.837 70.9706 281.943 71.0247C282.05 71.0788 282.144 71.1538 282.221 71.2451C282.298 71.3365 282.356 71.4425 282.391 71.5567C282.427 71.6709 282.439 71.7911 282.427 71.91C282.415 72.0289 282.379 72.1442 282.321 72.249C282.264 72.3539 282.186 72.4461 282.092 72.5201C281.999 72.5942 281.891 72.6487 281.776 72.6804C281.661 72.712 281.54 72.7201 281.422 72.7043C279.92 72.5513 278.411 72.4909 276.902 72.5234C276.847 72.5246 276.791 72.5204 276.736 72.5109H276.731ZM290.38 74.7567C290.328 74.7476 290.278 74.7338 290.229 74.7155C288.994 74.2698 287.736 73.89 286.461 73.5777C286.268 73.5303 286.078 73.4841 285.888 73.4417C285.657 73.3893 285.457 73.2475 285.331 73.0475C285.205 72.8475 285.164 72.6056 285.216 72.3749C285.24 72.2601 285.288 72.1514 285.355 72.0551C285.422 71.9589 285.508 71.877 285.607 71.8144C285.707 71.7517 285.817 71.7096 285.933 71.6903C286.049 71.6711 286.168 71.6753 286.282 71.7025C286.485 71.7486 286.687 71.796 286.89 71.8472C288.225 72.1742 289.541 72.5719 290.834 73.0387C291.043 73.1146 291.216 73.2662 291.32 73.4636C291.423 73.661 291.449 73.8899 291.392 74.1053C291.335 74.3207 291.199 74.507 291.012 74.6276C290.825 74.7481 290.599 74.7942 290.38 74.7567Z" fill="#F98816"/>
        <path d="M271.699 147.277C271.471 147.232 271.27 147.1 271.138 146.909C271.005 146.719 270.953 146.484 270.991 146.254C271.029 146.025 271.155 145.82 271.342 145.682C271.529 145.545 271.762 145.486 271.992 145.517C273.458 145.752 274.936 145.897 276.419 145.952C276.655 145.961 276.877 146.064 277.037 146.237C277.197 146.411 277.282 146.64 277.273 146.876C277.264 147.112 277.163 147.334 276.99 147.495C276.818 147.656 276.589 147.742 276.353 147.734C274.798 147.675 273.248 147.523 271.712 147.279L271.699 147.277ZM267.249 146.288C267.218 146.283 267.187 146.276 267.156 146.267C265.659 145.839 264.19 145.322 262.755 144.719C262.644 144.675 262.544 144.61 262.459 144.527C262.375 144.444 262.307 144.345 262.261 144.235C262.215 144.126 262.192 144.008 262.192 143.89C262.192 143.771 262.215 143.653 262.261 143.544C262.307 143.435 262.375 143.335 262.459 143.252C262.544 143.169 262.645 143.104 262.755 143.06C262.865 143.017 262.983 142.995 263.102 142.998C263.22 143 263.337 143.026 263.445 143.075C264.814 143.651 266.217 144.144 267.645 144.553C267.866 144.614 268.055 144.757 268.173 144.954C268.291 145.151 268.328 145.386 268.277 145.61C268.226 145.834 268.091 146.029 267.9 146.156C267.708 146.282 267.475 146.33 267.249 146.288ZM280.791 147.612C280.578 147.574 280.387 147.461 280.251 147.292C280.116 147.124 280.047 146.912 280.056 146.696C280.065 146.48 280.152 146.275 280.301 146.119C280.45 145.962 280.651 145.865 280.866 145.846C282.345 145.718 283.815 145.501 285.268 145.195C285.499 145.147 285.741 145.192 285.939 145.322C286.137 145.451 286.275 145.654 286.324 145.885C286.373 146.117 286.327 146.359 286.198 146.557C286.069 146.755 285.866 146.894 285.634 146.942C284.112 147.262 282.571 147.489 281.021 147.623C280.944 147.63 280.865 147.626 280.788 147.612H280.791ZM258.862 142.746C258.76 142.729 258.661 142.693 258.571 142.642C257.22 141.866 255.917 141.008 254.671 140.074C254.49 139.929 254.374 139.719 254.345 139.49C254.316 139.26 254.378 139.028 254.516 138.843C254.655 138.658 254.86 138.534 255.089 138.498C255.317 138.461 255.551 138.515 255.74 138.648C256.929 139.539 258.17 140.356 259.458 141.096C259.639 141.2 259.778 141.365 259.849 141.562C259.921 141.758 259.922 141.974 259.851 142.17C259.78 142.367 259.642 142.533 259.462 142.638C259.281 142.744 259.07 142.782 258.864 142.748L258.862 142.746ZM289.692 145.741C289.497 145.707 289.318 145.609 289.185 145.463C289.052 145.316 288.971 145.129 288.955 144.932C288.94 144.735 288.99 144.538 289.099 144.372C289.208 144.206 289.368 144.082 289.556 144.018C290.96 143.538 292.334 142.974 293.67 142.328C293.883 142.226 294.128 142.212 294.351 142.29C294.574 142.368 294.757 142.531 294.859 142.744C294.962 142.957 294.976 143.202 294.898 143.425C294.82 143.648 294.657 143.831 294.444 143.934C293.043 144.611 291.602 145.203 290.129 145.706C289.988 145.753 289.836 145.765 289.689 145.739L289.692 145.741ZM297.882 141.783C297.705 141.753 297.541 141.669 297.412 141.544C297.283 141.419 297.195 141.258 297.16 141.082C297.124 140.905 297.142 140.723 297.212 140.557C297.282 140.392 297.4 140.251 297.551 140.154C298.801 139.353 300.001 138.478 301.146 137.534C301.236 137.459 301.34 137.403 301.451 137.369C301.563 137.334 301.681 137.322 301.797 137.333C301.913 137.344 302.027 137.378 302.13 137.432C302.233 137.487 302.325 137.562 302.399 137.652C302.474 137.742 302.53 137.846 302.565 137.958C302.599 138.069 302.611 138.187 302.6 138.303C302.589 138.42 302.555 138.533 302.501 138.636C302.446 138.74 302.372 138.832 302.282 138.906C301.082 139.899 299.824 140.818 298.514 141.66C298.326 141.779 298.1 141.823 297.882 141.783ZM304.892 135.977C304.719 135.947 304.559 135.867 304.432 135.746C304.347 135.665 304.279 135.569 304.231 135.462C304.183 135.355 304.157 135.24 304.154 135.122C304.15 135.005 304.17 134.889 304.212 134.779C304.254 134.67 304.317 134.57 304.397 134.485C305.419 133.407 306.375 132.267 307.257 131.072C307.401 130.891 307.61 130.772 307.839 130.742C308.068 130.711 308.301 130.771 308.487 130.909C308.673 131.047 308.798 131.251 308.836 131.48C308.874 131.708 308.821 131.942 308.69 132.133C307.766 133.385 306.766 134.58 305.698 135.712C305.596 135.82 305.47 135.9 305.329 135.946C305.189 135.993 305.039 136.003 304.894 135.977H304.892Z" fill="#F98816"/>
        <path d="M79.4174 322.415C79.4217 323.688 79.9289 324.907 80.8283 325.806C81.7277 326.705 82.9461 327.212 84.2175 327.215H343.787C345.058 327.212 346.277 326.705 347.176 325.806C348.076 324.907 348.583 323.688 348.587 322.415L350.745 173.147C350.745 170.507 347.638 165.356 341.943 165.743L88.2658 159.174C86.6273 159.13 84.997 159.42 83.474 160.026C81.9509 160.633 80.5669 161.542 79.406 162.7C78.245 163.858 77.3314 165.24 76.7206 166.762C76.1098 168.284 75.8146 169.914 75.8528 171.554L79.4174 322.415Z" fill="url(#paint17_linear)"/>
        <path d="M84.1564 317.808C84.16 319.012 84.6397 320.166 85.4907 321.018C86.3417 321.869 87.4949 322.349 88.6984 322.353H337.529C338.733 322.349 339.886 321.869 340.737 321.018C341.588 320.166 342.068 319.012 342.071 317.808L344.109 182.301C343.869 174.147 336.725 171.216 332.389 171.388L89.2657 164.862C88.1136 164.831 86.9672 165.035 85.8963 165.461C84.8253 165.887 83.8521 166.527 83.0359 167.341C82.2196 168.155 81.5772 169.127 81.1479 170.197C80.7185 171.267 80.5111 172.414 80.5382 173.567L84.1564 317.808Z" fill="url(#paint18_linear)"/>
        <path d="M339.38 253.436H339.37C339.282 253.435 339.196 253.416 339.116 253.382C339.035 253.347 338.963 253.297 338.902 253.234C338.841 253.171 338.793 253.097 338.761 253.016C338.728 252.934 338.713 252.848 338.714 252.76L338.875 241.771C338.878 241.596 338.949 241.429 339.073 241.307C339.198 241.184 339.366 241.115 339.54 241.115H339.55C339.638 241.116 339.724 241.135 339.804 241.169C339.885 241.204 339.957 241.254 340.018 241.317C340.079 241.38 340.127 241.454 340.159 241.535C340.192 241.617 340.208 241.703 340.206 241.791L340.044 252.78C340.042 252.955 339.971 253.122 339.846 253.245C339.722 253.367 339.554 253.436 339.38 253.436Z" fill="white"/>
        <path d="M339.774 226.506H339.764C339.587 226.504 339.419 226.431 339.296 226.304C339.173 226.178 339.106 226.008 339.108 225.831L339.731 183.741C339.719 181.246 338.961 179.25 337.476 177.821C334.706 175.165 330.307 175.301 330.12 175.31L252.411 173.225C252.235 173.22 252.068 173.145 251.946 173.017C251.825 172.889 251.759 172.718 251.763 172.541C251.761 172.452 251.778 172.365 251.813 172.283C251.847 172.201 251.898 172.127 251.962 172.066C252.026 172.006 252.103 171.959 252.186 171.929C252.269 171.899 252.358 171.887 252.446 171.894L330.11 173.978C330.594 173.95 335.277 173.869 338.396 176.859C340.15 178.542 341.047 180.86 341.06 183.747L340.437 225.851C340.435 226.026 340.364 226.192 340.24 226.315C340.116 226.437 339.948 226.506 339.774 226.506Z" fill="white"/>
        <path d="M59.066 339.605L363.678 339.605C364.067 339.605 364.383 339.29 364.383 338.9V327.195C364.383 326.806 364.067 326.49 363.678 326.49L59.066 326.49C58.6769 326.49 58.3615 326.806 58.3615 327.195V338.9C58.3615 339.29 58.6769 339.605 59.066 339.605Z" fill="url(#paint19_linear)"/>
        <g opacity="0.52">
            <path opacity="0.52" d="M104.721 211.617V217.124H185.072V211.617H104.721Z" fill="white"/>
            <path opacity="0.52" d="M104.343 174.807V180.314H184.695V174.807H104.343Z" fill="white"/>
            <path opacity="0.52" d="M126.996 184.23V189.737H184.935V184.23H126.996Z" fill="white"/>
            <path opacity="0.52" d="M114.734 183.79V189.297H123.072V183.79H114.734Z" fill="white"/>
            <path opacity="0.52" d="M126.939 193.436V198.943H184.878V193.436H126.939Z" fill="white"/>
            <path opacity="0.52" d="M114.693 192.995V198.502H123.031V192.995H114.693Z" fill="white"/>
            <path opacity="0.52" d="M126.725 202.628V208.135H184.665V202.628H126.725Z" fill="white"/>
            <path opacity="0.52" d="M114.198 202.186V207.693H122.536V202.186H114.198Z" fill="white"/>
            <path opacity="0.52" d="M104.341 249.939V255.446H184.692V249.939H104.341Z" fill="white"/>
            <path opacity="0.52" d="M126.616 222.554V228.061H184.555V222.554H126.616Z" fill="white"/>
            <path opacity="0.52" d="M114.354 222.113V227.62H122.692V222.113H114.354Z" fill="white"/>
            <path opacity="0.52" d="M126.557 231.759V237.266H184.496V231.759H126.557Z" fill="white"/>
            <path opacity="0.52" d="M114.312 231.319V236.827H122.651V231.319H114.312Z" fill="white"/>
            <path opacity="0.52" d="M126.345 240.95V246.457H184.285V240.95H126.345Z" fill="white"/>
            <path opacity="0.52" d="M113.816 240.51V246.017H122.155V240.51H113.816Z" fill="white"/>
            <path opacity="0.52" d="M104.341 288.213V293.72H184.692V288.213H104.341Z" fill="white"/>
            <path opacity="0.52" d="M126.614 260.828V266.336H184.554V260.828H126.614Z" fill="white"/>
            <path opacity="0.52" d="M114.352 260.387V265.894H122.691V260.387H114.352Z" fill="white"/>
            <path opacity="0.52" d="M126.557 270.033V275.541H184.496V270.033H126.557Z" fill="white"/>
            <path opacity="0.52" d="M114.311 269.593V275.1H122.65V269.593H114.311Z" fill="white"/>
            <path opacity="0.52" d="M126.345 279.224V284.731H184.285V279.224H126.345Z" fill="white"/>
            <path opacity="0.52" d="M113.816 278.783V284.29H122.155V278.783H113.816Z" fill="white"/>
            <path opacity="0.52" d="M126.996 298.196V303.703H184.935V298.196H126.996Z" fill="white"/>
            <path opacity="0.52" d="M114.734 297.756V303.263H123.072V297.756H114.734Z" fill="white"/>
            <path opacity="0.52" d="M126.538 307.403V312.91H184.478V307.403H126.538Z" fill="white"/>
            <path opacity="0.52" d="M114.292 306.961V312.468H122.631V306.961H114.292Z" fill="white"/>
        </g>
        <g opacity="0.52">
            <path opacity="0.52" d="M246.126 280.166V285.747H303.963V280.166H246.126Z" fill="white"/>
            <path opacity="0.52" d="M222.6 270.837V276.42H316.438V270.837H222.6Z" fill="white"/>
            <path opacity="0.52" d="M252.609 261.52V267.102H327.828V261.52H252.609Z" fill="white"/>
            <path opacity="0.52" d="M252.609 252.194V257.777H295.502V252.194H252.609Z" fill="white"/>
            <path opacity="0.52" d="M253.606 242.856V248.438H328.732V242.856H253.606Z" fill="white"/>
            <path opacity="0.52" d="M246.883 233.538V239.121H310.366V233.538H246.883Z" fill="white"/>
            <path opacity="0.52" d="M222.602 224.196V229.777H290.382V224.196H222.602Z" fill="white"/>
            <path opacity="0.52" d="M252.858 214.872V220.455H330.189V214.872H252.858Z" fill="white"/>
            <path opacity="0.52" d="M252.858 205.546V211.128H331.147V205.546H252.858Z" fill="white"/>
            <path opacity="0.52" d="M253.607 196.217V201.801H330.733V196.217H253.607Z" fill="white"/>
            <path opacity="0.52" d="M239.644 186.89V192.472H302.828V186.89H239.644Z" fill="white"/>
            <path opacity="0.52" d="M200.005 214.639V220.221H216.389V214.639H200.005Z" fill="white"/>
            <path opacity="0.52" d="M200.005 224.233V229.815H216.389V224.233H200.005Z" fill="white"/>
            <path opacity="0.52" d="M200.005 233.435V239.017H216.389V233.435H200.005Z" fill="white"/>
            <path opacity="0.52" d="M200.004 242.796V248.378H216.388V242.796H200.004Z" fill="white"/>
            <path opacity="0.52" d="M200.005 252.391V257.973H216.389V252.391H200.005Z" fill="white"/>
            <path opacity="0.52" d="M200.004 261.592V267.174H216.388V261.592H200.004Z" fill="white"/>
            <path opacity="0.52" d="M200.836 270.765V276.347H217.22V270.765H200.836Z" fill="white"/>
            <path opacity="0.52" d="M200.837 280.359V285.941H217.221V280.359H200.837Z" fill="white"/>
            <path opacity="0.52" d="M200.836 289.561V295.143H217.22V289.561H200.836Z" fill="white"/>
            <path opacity="0.52" d="M200.837 298.949V304.531H217.221V298.949H200.837Z" fill="white"/>
            <path opacity="0.52" d="M200.836 308.543V314.125H217.22V308.543H200.836Z" fill="white"/>
            <path opacity="0.52" d="M200.004 205.543V211.125H216.388V205.543H200.004Z" fill="white"/>
            <path opacity="0.52" d="M200.004 196.224V201.806H216.388V196.224H200.004Z" fill="white"/>
            <path opacity="0.52" d="M200.005 186.89V192.472H216.389V186.89H200.005Z" fill="white"/>
            <path opacity="0.52" d="M200.004 177.563V183.145H216.388V177.563H200.004Z" fill="white"/>
            <path opacity="0.52" d="M222.615 177.574V183.157H301.182C301.182 180.074 298.651 177.575 295.528 177.574H222.615Z" fill="white"/>
            <path opacity="0.52" d="M253.357 308.908V314.492H332.586V308.908H253.357Z" fill="white"/>
            <path opacity="0.52" d="M253.357 299.298V304.88H331.146V299.298H253.357Z" fill="white"/>
            <path opacity="0.52" d="M253.371 290.132V295.715H302.841C302.841 292.632 301.248 290.132 299.282 290.132H253.371Z" fill="white"/>
        </g>
        <path opacity="0.53" d="M193.123 173.743H191.965C191.842 173.743 191.743 173.842 191.743 173.965V318.031C191.743 318.154 191.842 318.253 191.965 318.253H193.123C193.246 318.253 193.345 318.154 193.345 318.031V173.965C193.345 173.842 193.246 173.743 193.123 173.743Z" fill="white"/>
        <path d="M305.941 249.011L404.357 354.093C405.334 355.134 406.086 356.367 406.563 357.714C407.041 359.06 407.235 360.491 407.134 361.916C407.032 363.342 406.637 364.73 405.973 365.995C405.309 367.26 404.39 368.374 403.275 369.266L402.502 369.89C401.511 370.684 400.373 371.274 399.153 371.626C397.934 371.978 396.657 372.085 395.395 371.941C394.134 371.797 392.914 371.405 391.805 370.788C390.695 370.17 389.719 369.339 388.932 368.343L299.222 254.747L305.941 249.011Z" fill="url(#paint20_linear)"/>
        <path opacity="0.5" d="M323.423 224.671C339.781 192.349 326.377 152.633 293.483 135.963C260.59 119.292 220.663 131.981 204.305 164.303C187.946 196.625 201.351 236.341 234.244 253.011C267.138 269.681 307.064 256.993 323.423 224.671Z" fill="white"/>
        <path d="M197.584 160.893C179.381 196.86 194.302 241.052 230.904 259.6C267.506 278.147 311.933 264.026 330.134 228.059C348.334 192.093 333.415 147.9 296.814 129.353C260.214 110.806 215.785 124.924 197.584 160.893ZM207.32 165.826C222.846 135.143 260.747 123.097 291.977 138.92C323.206 154.742 335.929 192.443 320.404 223.126C304.879 253.809 266.976 265.856 235.747 250.034C204.517 234.212 191.793 196.511 207.32 165.826Z" fill="url(#paint21_linear)"/>
        <path d="M321.13 233.286C321.11 233.272 321.092 233.254 321.078 233.233C321.065 233.212 321.055 233.189 321.051 233.164C321.046 233.139 321.046 233.114 321.051 233.09C321.057 233.065 321.066 233.042 321.081 233.021C322.047 231.594 322.972 230.108 323.824 228.606C323.851 228.566 323.891 228.538 323.938 228.528C323.985 228.517 324.034 228.524 324.076 228.548C324.117 228.571 324.148 228.61 324.163 228.656C324.177 228.701 324.174 228.751 324.154 228.794C323.294 230.305 322.365 231.8 321.392 233.235C321.372 233.264 321.345 233.287 321.312 233.302C321.28 233.316 321.244 233.321 321.209 233.317C321.181 233.313 321.154 233.302 321.13 233.286ZM329.944 214.871C329.896 214.855 329.856 214.822 329.833 214.777C329.81 214.733 329.805 214.681 329.819 214.633C331.176 210.101 332.046 205.438 332.414 200.721C333.452 187.38 330.511 174.068 323.908 162.223C317.148 150.095 306.967 140.335 294.465 134.001C282.789 128.059 269.677 125.53 256.631 126.703C256.586 126.699 256.544 126.68 256.512 126.649C256.48 126.617 256.46 126.575 256.456 126.531C256.452 126.486 256.464 126.441 256.489 126.404C256.515 126.367 256.552 126.341 256.596 126.329C269.713 125.145 282.899 127.685 294.64 133.657C307.21 140.027 317.446 149.839 324.244 162.034C330.883 173.945 333.844 187.332 332.795 200.746C332.425 205.49 331.551 210.18 330.187 214.739C330.174 214.782 330.146 214.819 330.108 214.844C330.07 214.868 330.025 214.879 329.98 214.873L329.944 214.871Z" fill="white"/>
        <path d="M394.279 368.519C398.518 369.068 401.451 367.944 403.007 365.177C404.588 362.362 404.129 358.771 401.867 356.242L390.241 343.248C390.226 343.226 390.206 343.207 390.183 343.192C390.16 343.178 390.134 343.168 390.107 343.165C390.08 343.161 390.053 343.164 390.027 343.171C390.001 343.179 389.977 343.193 389.956 343.211C389.936 343.229 389.92 343.251 389.908 343.275C389.897 343.3 389.891 343.327 389.891 343.354C389.891 343.382 389.897 343.408 389.909 343.433C389.92 343.458 389.936 343.48 389.957 343.498L401.583 356.492C403.737 358.899 404.175 362.312 402.674 364.986C401.188 367.631 398.351 368.689 394.196 368.118C394.15 368.119 394.106 368.136 394.072 368.167C394.038 368.197 394.016 368.239 394.01 368.284C394.004 368.329 394.014 368.375 394.039 368.414C394.064 368.452 394.102 368.48 394.146 368.493L394.279 368.519Z" fill="white"/>
        <path d="M386.491 339.56C386.518 339.564 386.545 339.562 386.571 339.554C386.597 339.546 386.621 339.533 386.642 339.514C386.66 339.498 386.676 339.477 386.687 339.455C386.698 339.432 386.704 339.408 386.705 339.383C386.707 339.357 386.703 339.332 386.695 339.309C386.686 339.285 386.673 339.263 386.657 339.245L385.15 337.56C385.116 337.53 385.071 337.513 385.025 337.513C384.979 337.513 384.934 337.53 384.899 337.561C384.864 337.591 384.842 337.633 384.836 337.679C384.83 337.725 384.841 337.771 384.866 337.81L386.374 339.494C386.403 339.53 386.445 339.554 386.491 339.56Z" fill="white"/>
        <path d="M64.4323 317.997C63.3625 319.581 59.1135 355.426 58.4477 368.663C58.4374 368.875 58.4703 369.087 58.5445 369.286C58.6186 369.485 58.7325 369.667 58.8791 369.82C59.0257 369.974 59.202 370.096 59.3973 370.179C59.5925 370.262 59.8027 370.305 60.0149 370.304C60.3887 370.304 60.7501 370.171 61.0341 369.928C61.318 369.684 61.5057 369.348 61.5634 368.978L69.3359 319.138L64.4323 317.997Z" fill="url(#paint22_linear)"/>
        <path d="M98.5953 317.997C99.6651 319.581 103.914 355.426 104.58 368.663C104.59 368.875 104.557 369.087 104.483 369.287C104.408 369.486 104.294 369.668 104.147 369.822C104 369.975 103.824 370.097 103.628 370.18C103.432 370.263 103.222 370.306 103.009 370.304C102.635 370.305 102.273 370.171 101.989 369.928C101.705 369.685 101.517 369.348 101.459 368.978L93.688 319.138L98.5953 317.997Z" fill="url(#paint23_linear)"/>
        <path d="M58.0001 315.2V315.591C57.9751 318.403 60.3951 320.706 63.4273 320.761L99.351 321.372C102.343 321.423 104.829 319.263 104.974 316.494L104.993 316.137C105.144 313.25 102.694 310.817 99.5779 310.761L63.638 310.118C60.5622 310.061 58.03 312.347 58.0001 315.2Z" fill="url(#paint24_linear)"/>
        <path d="M127.891 367.361C121.505 367.361 118.68 366.812 117.418 366.313C117.543 366.846 117.844 367.321 118.272 367.661C118.701 368 119.232 368.185 119.778 368.185H142.37C142.539 368.185 142.705 368.146 142.857 368.07C143.008 367.995 143.14 367.887 143.242 367.752C143.345 367.618 143.415 367.462 143.447 367.296C143.479 367.13 143.473 366.959 143.429 366.796C140.853 367.009 135.383 367.361 127.891 367.361Z" fill="url(#paint25_linear)"/>
        <path d="M143.427 366.802C143.393 366.663 143.33 366.531 143.243 366.417C141.522 364.219 138.065 360.766 133.362 360.833C126.474 360.93 124.071 361.677 118.717 360.874L117.456 365.063C117.332 365.468 117.319 365.899 117.417 366.311C118.68 366.81 121.505 367.359 127.89 367.359C135.383 367.361 140.853 367.009 143.427 366.802Z" fill="url(#paint26_linear)"/>
        <path d="M120.268 356.36L118.719 361.636C118.719 361.636 122.153 363.2 125.174 361.944L125.768 357.374L120.268 356.36Z" fill="url(#paint27_linear)"/>
        <path d="M167.094 364.039C162.115 368.041 159.572 369.386 158.275 369.79C158.706 370.127 159.238 370.308 159.784 370.304C160.33 370.3 160.859 370.111 161.285 369.768L178.895 355.611C179.027 355.506 179.133 355.371 179.205 355.218C179.277 355.065 179.312 354.897 179.309 354.728C179.305 354.559 179.262 354.393 179.183 354.243C179.105 354.093 178.993 353.964 178.856 353.864C176.977 355.642 172.932 359.343 167.094 364.039Z" fill="url(#paint28_linear)"/>
        <path d="M178.856 353.864C178.742 353.779 178.611 353.717 178.472 353.682C175.76 353.059 170.914 352.543 167.29 355.541C161.981 359.935 160.573 362.02 155.9 364.753L157.521 368.795C157.677 369.188 157.936 369.533 158.269 369.793C159.566 369.389 162.109 368.046 167.088 364.041C172.933 359.343 176.977 355.642 178.856 353.864Z" fill="url(#paint29_linear)"/>
        <path d="M87.1051 296.249C87.1051 296.249 125.339 299.368 133.183 303.067C141.026 306.766 126.782 358.545 126.782 358.545C126.782 358.545 124.646 359.573 119.896 358.096C119.896 358.096 124.767 319.881 121.142 311.595L79.749 304.82L87.1051 296.249Z" fill="url(#paint30_linear)"/>
        <path d="M152.101 357.482C152.457 357.807 155.9 364.756 155.9 364.756C155.9 364.756 159.734 363.927 160.513 361.499L157.063 355.225L152.101 357.482Z" fill="url(#paint31_linear)"/>
        <path d="M64.0781 295.929C64.0781 295.929 62.8313 298.924 62.8825 302.916C62.9523 308.429 67.3821 312.903 72.8854 313.178L118.084 315.24C118.547 315.263 118.991 315.434 119.35 315.727C119.709 316.02 119.964 316.421 120.079 316.871C121.141 320.988 126.333 333.607 151.71 358.797C152.039 359.123 152.468 359.327 152.927 359.377C153.387 359.427 153.85 359.32 154.241 359.073L157.856 356.79C158.038 356.675 158.169 356.493 158.219 356.284C158.27 356.074 158.238 355.853 158.129 355.667L131.816 310.696C130.434 308.414 128.212 306.764 125.628 306.104L87.1025 296.248L64.0781 295.929Z" fill="url(#paint32_linear)"/>
        <path d="M108.62 225.681C108.62 225.681 103.778 234.248 98.8422 238.399L109.046 244.095C109.046 244.095 111.345 235.026 116.598 232.367L108.62 225.681Z" fill="url(#paint33_linear)"/>
        <path d="M63.2565 296.249C63.2565 296.249 75.4588 299.224 87.1051 296.249C87.1051 296.249 103.403 274.325 109.708 268.359C109.708 268.359 119.765 284.239 142.149 286.49L143.396 283.699C143.396 283.699 125.576 275.478 120.09 262.847C114.604 250.216 112.4 244.828 107.409 241.533C104.301 239.48 102.439 238.078 101.477 237.312C101.221 237.107 100.908 236.986 100.581 236.965C100.254 236.944 99.9286 237.025 99.649 237.196C94.3539 240.426 69.4294 257.509 63.2565 296.249Z" fill="url(#paint34_linear)"/>
        <path d="M109.046 268.222C108.899 268.222 108.755 268.188 108.623 268.124C108.492 268.059 108.377 267.964 108.288 267.848C104.387 262.759 102.215 257.148 102.124 256.911C102.075 256.793 102.05 256.666 102.051 256.539C102.051 256.411 102.078 256.284 102.128 256.167C102.179 256.05 102.252 255.944 102.344 255.855C102.436 255.767 102.545 255.697 102.664 255.652C102.783 255.606 102.91 255.585 103.038 255.589C103.166 255.593 103.291 255.623 103.407 255.677C103.523 255.73 103.627 255.807 103.712 255.901C103.798 255.996 103.864 256.107 103.907 256.227C103.928 256.282 106.076 261.823 109.803 266.685C109.912 266.826 109.979 266.995 109.996 267.173C110.014 267.35 109.982 267.529 109.903 267.689C109.824 267.849 109.702 267.984 109.551 268.078C109.399 268.172 109.224 268.222 109.046 268.222Z" fill="#F2BD4A"/>
        <path d="M140.804 282.24L143.324 281.568L150.974 279.796C151.43 279.69 151.902 279.675 152.364 279.753C152.825 279.831 153.266 279.999 153.662 280.249L160.236 284.39L142.071 284.36L140.804 282.24Z" fill="url(#paint35_linear)"/>
        <path d="M116.308 212.836C116.308 212.836 121.014 220.662 121.835 224.984C122.657 229.306 123.964 232.014 119.043 233.557C114.122 235.099 109.55 233.147 106.68 229.109C106.68 229.109 102.199 222.894 102.645 220.047C103.091 217.2 116.308 212.836 116.308 212.836Z" fill="url(#paint36_linear)"/>
        <path d="M107.984 225.765L108.62 225.681C108.62 225.681 105.288 220.644 107.469 219.393C109.649 218.143 118.533 215.077 120.076 211.576C121.564 208.2 119.338 204.387 116.656 203.591C116.573 203.569 116.485 203.579 116.409 203.619C116.333 203.659 116.275 203.726 116.246 203.807L116.088 204.232C116.064 204.297 116.021 204.352 115.965 204.392C115.909 204.432 115.843 204.455 115.774 204.457C115.706 204.459 115.638 204.44 115.58 204.404C115.522 204.367 115.476 204.314 115.448 204.251C115.422 204.191 115.379 204.139 115.325 204.102C115.27 204.066 115.207 204.045 115.141 204.044C115.075 204.042 115.011 204.06 114.955 204.094C114.898 204.128 114.853 204.178 114.825 204.237C114.349 205.286 112.923 207.078 108.651 208.464C102.589 210.43 98.8124 213.49 99.2774 217.799C99.2844 217.86 99.2748 217.922 99.2496 217.979C99.2245 218.035 99.1847 218.084 99.1345 218.119C99.0842 218.155 99.0253 218.177 98.9638 218.182C98.9023 218.187 98.8406 218.176 98.7849 218.15C98.2862 217.93 97.5381 217.9 96.6654 218.851C95.1481 220.511 96.3362 224.143 100.481 226.711C100.527 226.738 100.566 226.776 100.595 226.822C100.624 226.867 100.642 226.919 100.647 226.973C100.652 227.026 100.645 227.08 100.626 227.131C100.606 227.181 100.575 227.226 100.535 227.262C99.912 227.792 99.0393 228.978 101.847 230.033C104.715 231.112 106.281 230.747 106.858 230.515C106.933 230.485 106.995 230.43 107.034 230.359C107.073 230.288 107.086 230.206 107.071 230.127L106.333 226.356C106.324 226.31 106.324 226.262 106.334 226.216C106.344 226.17 106.364 226.127 106.391 226.088C106.419 226.05 106.454 226.018 106.494 225.994C106.534 225.969 106.579 225.953 106.626 225.947L107.984 225.765Z" fill="url(#paint37_linear)"/>
        <path d="M108.246 226.541C108.246 226.541 106.17 221.418 103.989 223.22C101.808 225.021 106.005 229 107.941 228.946L108.246 226.541Z" fill="url(#paint38_linear)"/>
        <path d="M133.786 287.957H133.874L172.682 287.918C172.914 287.925 173.144 287.884 173.36 287.8C173.576 287.715 173.772 287.589 173.938 287.427C174.104 287.265 174.236 287.072 174.326 286.858C174.416 286.645 174.463 286.415 174.463 286.183C174.463 285.952 174.416 285.722 174.326 285.509C174.236 285.295 174.104 285.102 173.938 284.94C173.772 284.778 173.576 284.651 173.36 284.567C173.144 284.483 172.914 284.442 172.682 284.449L133.874 284.487C133.423 284.489 132.991 284.667 132.668 284.983C132.346 285.299 132.16 285.729 132.149 286.18C132.138 286.632 132.303 287.07 132.609 287.401C132.916 287.733 133.339 287.932 133.79 287.956L133.786 287.957Z" fill="url(#paint39_linear)"/>
        <path d="M187.711 249.927C187.697 249.953 187.683 249.979 187.671 250.007L171.338 285.235C171.235 285.442 171.175 285.668 171.161 285.9C171.147 286.131 171.179 286.363 171.256 286.581C171.333 286.8 171.453 287 171.608 287.172C171.764 287.343 171.952 287.482 172.162 287.579C172.372 287.677 172.6 287.731 172.831 287.739C173.062 287.747 173.293 287.709 173.509 287.627C173.726 287.544 173.923 287.419 174.091 287.259C174.258 287.099 174.392 286.907 174.484 286.694L190.816 251.466C191.005 251.056 191.026 250.589 190.875 250.163C190.724 249.738 190.414 249.387 190.01 249.187C189.606 248.987 189.139 248.952 188.71 249.09C188.28 249.228 187.921 249.528 187.709 249.927H187.711Z" fill="url(#paint40_linear)"/>
        <path d="M151.065 290.875C150.896 291.578 134.704 352.349 130.598 367.756C130.486 368.167 130.469 368.599 130.55 369.018C130.631 369.437 130.807 369.831 131.064 370.171C131.322 370.511 131.654 370.787 132.035 370.979C132.416 371.17 132.836 371.271 133.262 371.274C133.881 371.271 134.481 371.061 134.966 370.676C135.451 370.292 135.794 369.755 135.938 369.153L153.913 296.226L151.065 290.875Z" fill="url(#paint41_linear)"/>
        <path d="M159.932 290.875C160.102 291.578 176.294 352.349 180.4 367.756C180.512 368.167 180.528 368.599 180.447 369.018C180.366 369.437 180.19 369.831 179.933 370.171C179.675 370.511 179.343 370.787 178.962 370.979C178.581 371.17 178.161 371.271 177.735 371.274C177.116 371.271 176.516 371.061 176.03 370.676C175.545 370.292 175.203 369.755 175.058 369.153L157.083 296.23L159.932 290.875Z" fill="url(#paint42_linear)"/>
        <path d="M160.611 288.888H150.522V296.997C150.52 297.273 150.572 297.546 150.676 297.801C150.78 298.056 150.933 298.288 151.127 298.483C151.32 298.679 151.55 298.835 151.804 298.942C152.058 299.049 152.33 299.104 152.605 299.106H153.988V317.309C153.986 317.517 154.026 317.724 154.105 317.917C154.183 318.11 154.299 318.286 154.445 318.434C154.592 318.583 154.766 318.7 154.958 318.781C155.15 318.862 155.356 318.904 155.565 318.906C155.773 318.904 155.979 318.862 156.171 318.781C156.363 318.7 156.537 318.582 156.683 318.434C156.83 318.285 156.945 318.11 157.024 317.917C157.102 317.724 157.142 317.517 157.141 317.309V299.101H157.843C158.208 299.099 158.57 299.025 158.907 298.884C159.244 298.742 159.549 298.536 159.806 298.276C160.063 298.016 160.267 297.708 160.405 297.369C160.543 297.03 160.613 296.668 160.611 296.302V288.888Z" fill="url(#paint43_linear)"/>
        <path d="M125.726 286.941H182.037C182.421 286.943 182.794 287.073 183.097 287.31C183.399 287.548 183.614 287.879 183.707 288.253L184.493 291.337C184.559 291.594 184.566 291.864 184.513 292.124C184.46 292.385 184.348 292.63 184.186 292.84C184.024 293.051 183.816 293.222 183.578 293.34C183.34 293.458 183.078 293.52 182.812 293.522L125.032 293.186C124.769 293.182 124.51 293.118 124.275 292.999C124.04 292.881 123.834 292.711 123.674 292.502C123.514 292.292 123.403 292.05 123.35 291.792C123.297 291.533 123.303 291.267 123.368 291.011L124.052 288.266C124.143 287.89 124.357 287.555 124.66 287.315C124.964 287.075 125.339 286.943 125.726 286.941Z" fill="url(#paint44_linear)"/>
    </g>
    <path d="M441.195 77.1949C455.406 62.9837 455.406 39.9428 441.195 25.7316C426.984 11.5205 403.943 11.5205 389.732 25.7317C375.52 39.9428 375.52 62.9837 389.732 77.1949C403.943 91.4061 426.984 91.4061 441.195 77.1949Z" fill="#FCA232"/>
    <path d="M387.718 27.9312C381.652 35.0454 378.557 44.222 379.077 53.557C379.596 62.8919 383.689 71.6686 390.507 78.066C397.325 84.4633 406.345 87.9902 415.694 87.9149C425.043 87.8395 434.004 84.1677 440.718 77.6612C399.028 71.7712 389.548 44.4712 387.718 27.9312Z" fill="#F98816"/>
    <path d="M394.381 45.5673H388.475V56.5712H386.26V43.7744H394.381V45.5673ZM404.076 43.7744H406.299V56.5712H404.076V47.457L398.459 56.5712H396.236V43.7744H398.459V52.8974L404.076 43.7744ZM417.048 45.5673H411.151V48.6699H413.77C414.708 48.6699 415.525 48.831 416.222 49.1533C416.919 49.4755 417.45 49.9326 417.813 50.5244C418.176 51.1161 418.358 51.8017 418.358 52.581C418.358 53.7763 417.951 54.7372 417.136 55.4638C416.328 56.1904 415.223 56.5595 413.823 56.5712H408.927V43.7744H417.048V45.5673ZM411.151 50.454V54.7958H413.761C414.511 54.7958 415.094 54.5937 415.51 54.1894C415.932 53.7792 416.143 53.2372 416.143 52.5634C416.143 51.9189 415.938 51.4091 415.528 51.0341C415.118 50.6591 414.549 50.4658 413.823 50.454H411.151ZM432.051 59.7177H429.942V56.5712H421.513V59.7177H419.369L419.298 54.7958H420.327C420.836 54.3036 421.244 53.5888 421.548 52.6513C421.853 51.7079 422.049 50.6415 422.137 49.4521L422.471 43.7744H430.54V54.7958H432.166L432.051 59.7177ZM422.84 54.7958H428.325V45.5673H424.589L424.378 49.1708C424.22 51.579 423.708 53.454 422.84 54.7958ZM445.78 59.7177H443.67V56.5712H435.242V59.7177H433.097L433.027 54.7958H434.055C434.565 54.3036 434.972 53.5888 435.277 52.6513C435.582 51.7079 435.778 50.6415 435.866 49.4521L436.2 43.7744H444.268V54.7958H445.894L445.78 59.7177ZM436.569 54.7958H442.053V45.5673H438.318L438.107 49.1708C437.949 51.579 437.436 53.454 436.569 54.7958Z" fill="#FBFFFD"/>
    <path d="M288.75 71.09V60.87H282.39C281.864 58.5821 280.973 56.394 279.75 54.39L284.28 49.86L277.06 42.63L272.56 47.13C270.568 45.8863 268.391 44.9681 266.11 44.41V38H255.86V44.36C253.574 44.8921 251.387 45.7831 249.38 47L244.86 42.47L237.63 49.69L242.13 54.19C240.888 56.1826 239.97 58.3597 239.41 60.64H233V70.86H239.36C239.89 73.1465 240.781 75.334 242 77.34L237.47 81.87L244.7 89.1L249.19 84.6C251.189 85.8376 253.373 86.7459 255.66 87.29V93.7H265.86V87.34C268.147 86.8099 270.334 85.9187 272.34 84.7L276.86 89.29L284.08 82.07L279.58 77.57C280.826 75.5795 281.745 73.4018 282.3 71.12L288.75 71.09ZM260.86 75.68C258.917 75.68 257.018 75.1038 255.403 74.0243C253.788 72.9449 252.53 71.4106 251.787 69.6156C251.044 67.8207 250.85 65.8457 251.229 63.9405C251.609 62.0354 252.545 60.2856 253.92 58.9127C255.294 57.5397 257.045 56.6052 258.95 56.2275C260.856 55.8497 262.831 56.0456 264.625 56.7904C266.419 57.5352 267.952 58.7954 269.03 60.4116C270.108 62.0278 270.682 63.9274 270.68 65.87C270.68 67.1591 270.426 68.4356 269.932 69.6264C269.439 70.8173 268.715 71.8992 267.803 72.8102C266.891 73.7213 265.809 74.4437 264.617 74.9361C263.426 75.4285 262.149 75.6813 260.86 75.68Z" fill="#2F80ED"/>
    <path d="M326.86 102.42V94.42H321.86C321.446 92.616 320.743 90.8905 319.78 89.31L323.35 85.74L317.66 80.06L314.12 83.6C312.553 82.6178 310.837 81.8952 309.04 81.46V76.46H301.04V81.46C299.236 81.8743 297.511 82.5767 295.93 83.54L292.36 79.97L286.68 85.66L290.22 89.2C289.235 90.7656 288.512 92.4815 288.08 94.28H283.03V102.28H288.03C288.444 104.084 289.147 105.809 290.11 107.39L286.54 110.95L292.23 116.64L295.77 113.1C297.336 114.085 299.052 114.808 300.85 115.24V120.24H308.85V115.24C310.654 114.826 312.379 114.123 313.96 113.16L317.52 116.73L323.21 111.04L319.67 107.5C320.652 105.933 321.375 104.217 321.81 102.42H326.86ZM304.93 106.04C303.401 106.04 301.907 105.587 300.635 104.737C299.364 103.888 298.373 102.681 297.788 101.268C297.203 99.8556 297.05 98.3014 297.349 96.8019C297.647 95.3024 298.383 93.9251 299.464 92.844C300.545 91.763 301.922 91.0267 303.422 90.7285C304.921 90.4302 306.476 90.5833 307.888 91.1684C309.301 91.7534 310.508 92.7442 311.357 94.0154C312.207 95.2866 312.66 96.7811 312.66 98.31C312.66 99.3259 312.46 100.332 312.071 101.27C311.682 102.209 311.111 103.062 310.392 103.779C309.674 104.497 308.82 105.067 307.881 105.454C306.942 105.842 305.936 106.041 304.92 106.04H304.93Z" fill="#2F80ED"/>
    <path d="M282.86 121.03V115.29H279.31C279.013 114.014 278.517 112.792 277.84 111.67L280.37 109.14L276.37 105.14L273.86 107.65C272.75 106.951 271.535 106.438 270.26 106.13V102.55H264.55V106.1C263.271 106.392 262.048 106.892 260.93 107.58L258.4 105.05L254.4 109.05L256.91 111.56C256.217 112.675 255.707 113.894 255.4 115.17H251.81V120.87H255.37C255.663 122.148 256.16 123.37 256.84 124.49L254.31 127.03L258.31 131.03L260.82 128.52C261.933 129.212 263.148 129.725 264.42 130.04V133.62H270.13V130.07C271.408 129.773 272.63 129.274 273.75 128.59L276.28 131.12L280.28 127.12L277.77 124.6C278.463 123.489 278.973 122.273 279.28 121L282.86 121.03ZM267.3 123.6C266.214 123.602 265.151 123.282 264.247 122.68C263.343 122.078 262.638 121.221 262.221 120.218C261.804 119.215 261.694 118.111 261.904 117.045C262.115 115.98 262.637 115 263.404 114.232C264.172 113.463 265.15 112.939 266.215 112.726C267.281 112.514 268.385 112.622 269.389 113.037C270.392 113.452 271.25 114.156 271.854 115.059C272.458 115.962 272.78 117.024 272.78 118.11C272.78 118.834 272.637 119.55 272.359 120.218C272.082 120.886 271.674 121.493 271.161 122.003C270.648 122.513 270.04 122.917 269.37 123.191C268.701 123.465 267.984 123.604 267.26 123.6H267.3Z" fill="#2F80ED"/>
    <path d="M142.547 89.3803H141.817C142.299 87.3826 142.544 85.3352 142.547 83.2803C142.549 78.4272 141.186 73.6716 138.613 69.5562C136.041 65.4409 132.363 62.1317 128 60.0065C123.637 57.8813 118.765 57.0257 113.939 57.5374C109.113 58.0491 104.528 59.9075 100.707 62.9003C98.4111 58.0021 94.6382 53.9463 89.9185 51.3025C85.1988 48.6587 79.7696 47.5597 74.3932 48.1599C69.0169 48.76 63.9636 51.0293 59.9432 54.6488C55.9227 58.2683 53.1371 63.0563 51.9774 68.3403C48.3483 67.0714 44.4822 66.626 40.6596 67.0364C36.837 67.4468 33.1536 68.7028 29.8765 70.7133C26.5995 72.7237 23.8109 75.4383 21.713 78.6601C19.6152 81.8818 18.2606 85.5301 17.7474 89.3403H17.5174C14.0209 89.3373 10.5861 90.2612 7.56295 92.0178C4.53977 93.7745 2.03624 96.3011 0.307442 99.3403C0.10313 99.7022 -0.00284619 100.111 5.8128e-05 100.527C0.00296244 100.943 0.114646 101.35 0.323996 101.709C0.533346 102.068 0.833064 102.366 1.19333 102.573C1.55359 102.781 1.96183 102.89 2.37744 102.89H157.647C158.063 102.891 158.472 102.782 158.833 102.575C159.193 102.368 159.493 102.07 159.702 101.71C159.911 101.35 160.021 100.942 160.022 100.526C160.023 100.11 159.915 99.701 159.707 99.3403C157.979 96.3146 155.482 93.7996 152.468 92.0504C149.455 90.3012 146.032 89.3801 142.547 89.3803Z" fill="#E4F4FE"/>
    <path d="M79.5774 108.28L62.0874 77.9703L44.5874 108.28H56.2474V146.12H67.9174V108.28H79.5774Z" fill="#4779F6"/>
    <path d="M80.3875 115.81L97.8875 146.12L115.377 115.81H103.717V77.9703H92.0475V115.81H80.3875Z" fill="#FCA232"/>
    <path d="M124.33 158H45V174.73H124.33V158Z" fill="#F98816"/>
    <path d="M58.7999 165.46C58.8019 166.485 58.4995 167.488 57.9311 168.342C57.3627 169.195 56.5538 169.861 55.6069 170.254C54.6599 170.647 53.6176 170.751 52.6118 170.551C51.6061 170.351 50.6822 169.858 49.9571 169.133C49.2321 168.408 48.7385 167.484 48.539 166.478C48.3394 165.472 48.4429 164.43 48.8362 163.483C49.2295 162.536 49.8949 161.727 50.7483 161.159C51.6017 160.59 52.6046 160.288 53.6299 160.29C55.0003 160.293 56.3138 160.838 57.2828 161.807C58.2517 162.776 58.7973 164.09 58.7999 165.46Z" fill="white"/>
    <path d="M55.4701 163.57C55.472 163.929 55.3673 164.28 55.1692 164.579C54.9711 164.879 54.6885 165.112 54.3574 165.25C54.0262 165.389 53.6615 165.425 53.3094 165.356C52.9574 165.286 52.634 165.114 52.3802 164.86C52.1265 164.606 51.9539 164.283 51.8844 163.931C51.8149 163.579 51.8516 163.214 51.9898 162.883C52.128 162.552 52.3616 162.269 52.6607 162.071C52.9599 161.873 53.3112 161.768 53.6701 161.77C54.1467 161.773 54.603 161.963 54.94 162.3C55.277 162.637 55.4674 163.093 55.4701 163.57Z" fill="#F98816"/>
    <path d="M53.0901 165.5H54.2501C55.0457 165.5 55.8088 165.816 56.3714 166.379C56.934 166.941 57.2501 167.704 57.2501 168.5V170.71H50.0901V168.5C50.0901 167.704 50.4062 166.941 50.9688 166.379C51.5314 165.816 52.2944 165.5 53.0901 165.5Z" fill="#F98816"/>
    <path d="M114.17 162.26H61.37V163.06H114.17V162.26Z" fill="white"/>
    <path d="M114.17 164.67H61.37V165.47H114.17V164.67Z" fill="white"/>
    <path d="M114.17 167.07H61.37V167.87H114.17V167.07Z" fill="white"/>
    <path d="M114.17 169.47H61.37V170.27H114.17V169.47Z" fill="white"/>
    <path d="M124.33 180.54H45V197.27H124.33V180.54Z" fill="#F98816"/>
    <path d="M58.7999 188C58.8019 189.025 58.4995 190.028 57.9311 190.882C57.3627 191.735 56.5538 192.4 55.6069 192.794C54.6599 193.187 53.6176 193.29 52.6118 193.091C51.6061 192.891 50.6822 192.398 49.9571 191.673C49.2321 190.948 48.7385 190.024 48.539 189.018C48.3394 188.012 48.4429 186.97 48.8362 186.023C49.2295 185.076 49.8949 184.267 50.7483 183.699C51.6017 183.13 52.6046 182.828 53.6299 182.83C55.0003 182.833 56.3138 183.378 57.2828 184.347C58.2517 185.316 58.7973 186.63 58.7999 188Z" fill="white"/>
    <path d="M55.47 186.11C55.47 186.468 55.3636 186.819 55.1642 187.117C54.9649 187.414 54.6816 187.646 54.3503 187.783C54.019 187.92 53.6545 187.955 53.3032 187.884C52.9518 187.814 52.6293 187.64 52.3766 187.386C52.1238 187.132 51.9523 186.809 51.8835 186.457C51.8148 186.105 51.8521 185.741 51.9906 185.41C52.1292 185.08 52.3627 184.798 52.6617 184.6C52.9607 184.402 53.3116 184.298 53.67 184.3C54.1483 184.303 54.6061 184.494 54.9434 184.834C55.2807 185.173 55.47 185.632 55.47 186.11Z" fill="#F98816"/>
    <path d="M53.0901 188.04H54.2501C55.0457 188.04 55.8088 188.356 56.3714 188.919C56.934 189.481 57.2501 190.244 57.2501 191.04V193.25H50.0901V191.04C50.0901 190.244 50.4062 189.481 50.9688 188.919C51.5314 188.356 52.2944 188.04 53.0901 188.04Z" fill="#F98816"/>
    <path d="M114.17 184.81H61.37V185.61H114.17V184.81Z" fill="white"/>
    <path d="M114.17 187.21H61.37V188.01H114.17V187.21Z" fill="white"/>
    <path d="M114.17 189.61H61.37V190.41H114.17V189.61Z" fill="white"/>
    <path d="M114.17 192.01H61.37V192.81H114.17V192.01Z" fill="white"/>
    <defs>
        <linearGradient id="paint0_linear" x1="346.638" y1="-4.5716" x2="283.553" y2="239.932" gradientUnits="userSpaceOnUse">
            <stop stop-color="#CB236D"/>
            <stop offset="1" stop-color="#4C246D"/>
        </linearGradient>
        <linearGradient id="paint1_linear" x1="189.889" y1="325.36" x2="334.356" y2="28.317" gradientUnits="userSpaceOnUse">
            <stop stop-color="#A737D5"/>
            <stop offset="1" stop-color="#EF497A"/>
        </linearGradient>
        <linearGradient id="paint2_linear" x1="561507" y1="-4970.41" x2="561428" y2="2206.44" gradientUnits="userSpaceOnUse">
            <stop stop-color="#B37CFF"/>
            <stop offset="1" stop-color="#F895E7"/>
        </linearGradient>
        <linearGradient id="paint3_linear" x1="544470" y1="-3061.63" x2="544405" y2="3596.81" gradientUnits="userSpaceOnUse">
            <stop stop-color="#B37CFF"/>
            <stop offset="1" stop-color="#F895E7"/>
        </linearGradient>
        <linearGradient id="paint4_linear" x1="275664" y1="112625" x2="288048" y2="-16808.5" gradientUnits="userSpaceOnUse">
            <stop stop-color="#A737D5"/>
            <stop offset="1" stop-color="#EF497A"/>
        </linearGradient>
        <linearGradient id="paint5_linear" x1="473793" y1="3156.04" x2="473753" y2="6602.9" gradientUnits="userSpaceOnUse">
            <stop stop-color="#B37CFF"/>
            <stop offset="1" stop-color="#F895E7"/>
        </linearGradient>
        <linearGradient id="paint6_linear" x1="563873" y1="-670.351" x2="563723" y2="11268.4" gradientUnits="userSpaceOnUse">
            <stop stop-color="#B37CFF"/>
            <stop offset="1" stop-color="#F895E7"/>
        </linearGradient>
        <linearGradient id="paint7_linear" x1="313025" y1="115053" x2="325171" y2="-12972.2" gradientUnits="userSpaceOnUse">
            <stop stop-color="#A737D5"/>
            <stop offset="1" stop-color="#EF497A"/>
        </linearGradient>
        <linearGradient id="paint8_linear" x1="560245" y1="364.487" x2="560161" y2="9828.61" gradientUnits="userSpaceOnUse">
            <stop stop-color="#B37CFF"/>
            <stop offset="1" stop-color="#F895E7"/>
        </linearGradient>
        <linearGradient id="paint9_linear" x1="551303" y1="3252.81" x2="551248" y2="8347.8" gradientUnits="userSpaceOnUse">
            <stop stop-color="#B37CFF"/>
            <stop offset="1" stop-color="#F895E7"/>
        </linearGradient>
        <linearGradient id="paint10_linear" x1="350624" y1="119088" x2="362857" y2="-9365.29" gradientUnits="userSpaceOnUse">
            <stop stop-color="#A737D5"/>
            <stop offset="1" stop-color="#EF497A"/>
        </linearGradient>
        <linearGradient id="paint11_linear" x1="547549" y1="3561.58" x2="547474" y2="10734" gradientUnits="userSpaceOnUse">
            <stop stop-color="#B37CFF"/>
            <stop offset="1" stop-color="#F895E7"/>
        </linearGradient>
        <linearGradient id="paint12_linear" x1="558374" y1="5101.86" x2="558301" y2="11685.3" gradientUnits="userSpaceOnUse">
            <stop stop-color="#B37CFF"/>
            <stop offset="1" stop-color="#F895E7"/>
        </linearGradient>
        <linearGradient id="paint13_linear" x1="10806.5" y1="3667.14" x2="15121.3" y2="-6724.53" gradientUnits="userSpaceOnUse">
            <stop stop-color="#FDF53F"/>
            <stop offset="0.66" stop-color="#E57A58"/>
            <stop offset="1" stop-color="#D93C65"/>
        </linearGradient>
        <linearGradient id="paint14_linear" x1="7875.73" y1="4919.26" x2="14737.8" y2="-4139.87" gradientUnits="userSpaceOnUse">
            <stop stop-color="#FDF53F"/>
            <stop offset="0.66" stop-color="#E57A58"/>
            <stop offset="1" stop-color="#D93C65"/>
        </linearGradient>
        <linearGradient id="paint15_linear" x1="3451.03" y1="2254.9" x2="8921.33" y2="-4058.18" gradientUnits="userSpaceOnUse">
            <stop stop-color="#FDF53F"/>
            <stop offset="0.66" stop-color="#E57A58"/>
            <stop offset="1" stop-color="#D93C65"/>
        </linearGradient>
        <linearGradient id="paint16_linear" x1="6252.04" y1="2163.98" x2="9610.39" y2="-5690.33" gradientUnits="userSpaceOnUse">
            <stop stop-color="#FDF53F"/>
            <stop offset="0.66" stop-color="#E57A58"/>
            <stop offset="1" stop-color="#D93C65"/>
        </linearGradient>
        <linearGradient id="paint17_linear" x1="237.712" y1="315.739" x2="176.331" y2="131.725" gradientUnits="userSpaceOnUse">
            <stop stop-color="#2B3582"/>
            <stop offset="1" stop-color="#150E42"/>
        </linearGradient>
        <linearGradient id="paint18_linear" x1="316.355" y1="152.394" x2="92.6308" y2="348.686" gradientUnits="userSpaceOnUse">
            <stop stop-color="#53D8FF"/>
            <stop offset="1" stop-color="#3840F7"/>
        </linearGradient>
        <linearGradient id="paint19_linear" x1="6200.36" y1="30362.4" x2="27573.8" y2="151672" gradientUnits="userSpaceOnUse">
            <stop stop-color="#2B3582"/>
            <stop offset="1" stop-color="#150E42"/>
        </linearGradient>
        <linearGradient id="paint20_linear" x1="-70541.9" y1="150832" x2="-182656" y2="94183.1" gradientUnits="userSpaceOnUse">
            <stop stop-color="#2B3582"/>
            <stop offset="1" stop-color="#150E42"/>
        </linearGradient>
        <linearGradient id="paint21_linear" x1="132739" y1="215828" x2="-27858.6" y2="143519" gradientUnits="userSpaceOnUse">
            <stop stop-color="#2B3582"/>
            <stop offset="1" stop-color="#150E42"/>
        </linearGradient>
        <linearGradient id="paint22_linear" x1="1742.59" y1="122820" x2="-14395.7" y2="130424" gradientUnits="userSpaceOnUse">
            <stop stop-color="#53D8FF"/>
            <stop offset="1" stop-color="#3840F7"/>
        </linearGradient>
        <linearGradient id="paint23_linear" x1="4438.35" y1="128464" x2="-11703.5" y2="136072" gradientUnits="userSpaceOnUse">
            <stop stop-color="#53D8FF"/>
            <stop offset="1" stop-color="#3840F7"/>
        </linearGradient>
        <linearGradient id="paint24_linear" x1="5424.86" y1="31094.6" x2="5570.5" y2="28176.1" gradientUnits="userSpaceOnUse">
            <stop stop-color="#FDF53F"/>
            <stop offset="0.66" stop-color="#E57A58"/>
            <stop offset="1" stop-color="#D93C65"/>
        </linearGradient>
        <linearGradient id="paint25_linear" x1="12531.4" y1="5590.55" x2="17973.9" y2="5590.55" gradientUnits="userSpaceOnUse">
            <stop stop-color="#CB236D"/>
            <stop offset="1" stop-color="#4C246D"/>
        </linearGradient>
        <linearGradient id="paint26_linear" x1="16741.1" y1="15957.7" x2="16646" y2="18582.6" gradientUnits="userSpaceOnUse">
            <stop stop-color="#CB236D"/>
            <stop offset="1" stop-color="#4C246D"/>
        </linearGradient>
        <linearGradient id="paint27_linear" x1="118.717" y1="359.396" x2="125.767" y2="359.396" gradientUnits="userSpaceOnUse">
            <stop stop-color="#F9B776"/>
            <stop offset="1" stop-color="#F47960"/>
        </linearGradient>
        <linearGradient id="paint28_linear" x1="17074.7" y1="45561.5" x2="20622.8" y2="45561.5" gradientUnits="userSpaceOnUse">
            <stop stop-color="#CB236D"/>
            <stop offset="1" stop-color="#4C246D"/>
        </linearGradient>
        <linearGradient id="paint29_linear" x1="21281.9" y1="40672.8" x2="20590.8" y2="47280.6" gradientUnits="userSpaceOnUse">
            <stop stop-color="#CB236D"/>
            <stop offset="1" stop-color="#4C246D"/>
        </linearGradient>
        <linearGradient id="paint30_linear" x1="9810.19" y1="155233" x2="34776.5" y2="155233" gradientUnits="userSpaceOnUse">
            <stop stop-color="#2B3582"/>
            <stop offset="1" stop-color="#150E42"/>
        </linearGradient>
        <linearGradient id="paint31_linear" x1="6501.11" y1="26404.1" x2="7068.84" y2="26404.1" gradientUnits="userSpaceOnUse">
            <stop stop-color="#F9B776"/>
            <stop offset="1" stop-color="#F47960"/>
        </linearGradient>
        <linearGradient id="paint32_linear" x1="55458.7" y1="145416" x2="28023.5" y2="192159" gradientUnits="userSpaceOnUse">
            <stop stop-color="#2B3582"/>
            <stop offset="1" stop-color="#150E42"/>
        </linearGradient>
        <linearGradient id="paint33_linear" x1="6843.61" y1="33039.9" x2="7472.49" y2="31510.6" gradientUnits="userSpaceOnUse">
            <stop stop-color="#F9B776"/>
            <stop offset="1" stop-color="#F47960"/>
        </linearGradient>
        <linearGradient id="paint34_linear" x1="19476.3" y1="119803" x2="38475.5" y2="161045" gradientUnits="userSpaceOnUse">
            <stop stop-color="#FDF53F"/>
            <stop offset="0.66" stop-color="#E57A58"/>
            <stop offset="1" stop-color="#D93C65"/>
        </linearGradient>
        <linearGradient id="paint35_linear" x1="13046.6" y1="10159.8" x2="16075.9" y2="10159.8" gradientUnits="userSpaceOnUse">
            <stop stop-color="#F9B776"/>
            <stop offset="1" stop-color="#F47960"/>
        </linearGradient>
        <linearGradient id="paint36_linear" x1="52823.3" y1="37412.3" x2="49691.9" y2="40361.5" gradientUnits="userSpaceOnUse">
            <stop stop-color="#F9B776"/>
            <stop offset="1" stop-color="#F47960"/>
        </linearGradient>
        <linearGradient id="paint37_linear" x1="61833.3" y1="45804.9" x2="66631.2" y2="50089.8" gradientUnits="userSpaceOnUse">
            <stop stop-color="#2B3582"/>
            <stop offset="1" stop-color="#150E42"/>
        </linearGradient>
        <linearGradient id="paint38_linear" x1="12876.3" y1="11030.9" x2="12018.9" y2="11721.9" gradientUnits="userSpaceOnUse">
            <stop stop-color="#F9B776"/>
            <stop offset="1" stop-color="#F47960"/>
        </linearGradient>
        <linearGradient id="paint39_linear" x1="-1.20469e+06" y1="-172239" x2="-1.20455e+06" y2="-168182" gradientUnits="userSpaceOnUse">
            <stop stop-color="#2B3582"/>
            <stop offset="1" stop-color="#150E42"/>
        </linearGradient>
        <linearGradient id="paint40_linear" x1="1.31463e+06" y1="150161" x2="1.29846e+06" y2="161819" gradientUnits="userSpaceOnUse">
            <stop stop-color="#2B3582"/>
            <stop offset="1" stop-color="#150E42"/>
        </linearGradient>
        <linearGradient id="paint41_linear" x1="139.101" y1="267.124" x2="144.439" y2="379.144" gradientUnits="userSpaceOnUse">
            <stop stop-color="#9CFFFB"/>
            <stop offset="1" stop-color="#9BFFFA"/>
        </linearGradient>
        <linearGradient id="paint42_linear" x1="20369.3" y1="159370" x2="31890" y2="229836" gradientUnits="userSpaceOnUse">
            <stop stop-color="#9CFFFB"/>
            <stop offset="1" stop-color="#9BFFFA"/>
        </linearGradient>
        <linearGradient id="paint43_linear" x1="7943.27" y1="59813.2" x2="11694.7" y2="86294.8" gradientUnits="userSpaceOnUse">
            <stop stop-color="#9CFFFB"/>
            <stop offset="1" stop-color="#9BFFFA"/>
        </linearGradient>
        <linearGradient id="paint44_linear" x1="47572.3" y1="14399.6" x2="47531" y2="17242.3" gradientUnits="userSpaceOnUse">
            <stop stop-color="#9CFFFB"/>
            <stop offset="1" stop-color="#9BFFFA"/>
        </linearGradient>
        <clipPath id="clip0">
            <rect width="353" height="353" fill="white" transform="translate(58 19)"/>
        </clipPath>
    </defs>
</svg>
